<svg width="24" height="24" viewBox="0 0 24 24" fill="none" xmlns="http://www.w3.org/2000/svg">
<path d="M4.983 7.19704C6.1914 7.19704 7.171 6.21744 7.171 5.00904C7.171 3.80065 6.1914 2.82104 4.983 2.82104C3.7746 2.82104 2.795 3.80065 2.795 5.00904C2.795 6.21744 3.7746 7.19704 4.983 7.19704Z" fill="#81CAFF"/>
<path d="M9.237 8.85505V20.9941H13.006V14.9911C13.006 13.4071 13.304 11.8731 15.268 11.8731C17.205 11.8731 17.229 13.6841 17.229 15.0911V20.9951H21V14.3381C21 11.0681 20.296 8.55505 16.474 8.55505C14.639 8.55505 13.409 9.56205 12.906 10.5151H12.855V8.85505H9.237ZM3.095 8.85505H6.87V20.9941H3.095V8.85505Z" fill="#81CAFF"/>
</svg>
