<svg width="26" height="22" viewBox="0 0 26 22" fill="none" xmlns="http://www.w3.org/2000/svg">
<path d="M15.6003 20.8094L25.7442 10.6127L15.6003 0.416056C15.5087 0.295751 15.3923 0.196534 15.259 0.125122C15.1257 0.0537096 14.9786 0.01177 14.8277 0.00214154C14.6768 -0.00748688 14.5256 0.0154214 14.3843 0.0693147C14.243 0.123208 14.115 0.206828 14.0088 0.314515C13.9026 0.422202 13.8209 0.55144 13.769 0.693482C13.7171 0.835523 13.6964 0.987051 13.7081 1.13781C13.7199 1.28856 13.764 1.43503 13.8373 1.56728C13.9106 1.69954 14.0115 1.8145 14.1331 1.90439L21.7225 9.55717L1.52973 9.55717C1.24977 9.55717 0.98129 9.66837 0.783336 9.86633C0.58538 10.0643 0.47417 10.3328 0.47417 10.6127C0.47417 10.8927 0.58538 11.1612 0.783336 11.3591C0.98129 11.5571 1.24977 11.6683 1.52973 11.6683L21.7225 11.6683L14.1331 19.3211C13.9357 19.5198 13.8254 19.7888 13.8264 20.069C13.8274 20.3491 13.9396 20.6173 14.1383 20.8147C14.3371 21.012 14.6061 21.1224 14.8862 21.1214C15.1663 21.1204 15.4346 21.0082 15.6319 20.8094L15.6003 20.8094Z" fill="#818080"/>
</svg>
