<svg width="141" height="193" viewBox="0 0 141 193" fill="none" xmlns="http://www.w3.org/2000/svg">
<path d="M70.7242 1.87639L129.757 35.9588C129.911 36.0481 130.007 36.2132 130.007 36.3918V104.557C130.007 104.735 129.911 104.9 129.757 104.99L70.7242 139.072C70.5695 139.161 70.3789 139.161 70.2242 139.072L11.1918 104.99C11.037 104.9 10.9417 104.735 10.9417 104.557V36.3918C10.9417 36.2132 11.0371 36.0481 11.1917 35.9588L70.2242 1.87639C70.3789 1.78707 70.5695 1.78707 70.7242 1.87639Z" stroke="url(#paint0_linear_3054_65)" stroke-width="3"/>
<path d="M50.7029 187.248C49.2629 187.248 48.0296 186.935 47.0029 186.308C45.9762 185.675 45.1862 184.795 44.6329 183.668C44.0862 182.542 43.8129 181.235 43.8129 179.748C43.8129 178.262 44.0862 176.955 44.6329 175.828C45.1862 174.702 45.9762 173.825 47.0029 173.198C48.0296 172.565 49.2629 172.248 50.7029 172.248C52.3629 172.248 53.7462 172.665 54.8529 173.498C55.9596 174.325 56.7362 175.442 57.1829 176.848L54.7529 177.518C54.4729 176.578 53.9962 175.845 53.3229 175.318C52.6496 174.785 51.7762 174.518 50.7029 174.518C49.7362 174.518 48.9296 174.735 48.2829 175.168C47.6429 175.602 47.1596 176.212 46.8329 176.998C46.5129 177.778 46.3496 178.695 46.3429 179.748C46.3429 180.802 46.5029 181.722 46.8229 182.508C47.1496 183.288 47.6362 183.895 48.2829 184.328C48.9296 184.762 49.7362 184.978 50.7029 184.978C51.7762 184.978 52.6496 184.712 53.3229 184.178C53.9962 183.645 54.4729 182.912 54.7529 181.978L57.1829 182.648C56.7362 184.055 55.9596 185.175 54.8529 186.008C53.7462 186.835 52.3629 187.248 50.7029 187.248ZM65.314 187.248C64.2607 187.248 63.3107 187.065 62.464 186.698C61.624 186.332 60.9307 185.808 60.384 185.128C59.844 184.442 59.5007 183.628 59.354 182.688L61.854 182.308C62.0673 183.162 62.504 183.822 63.164 184.288C63.8307 184.755 64.5973 184.988 65.464 184.988C65.9773 184.988 66.4607 184.908 66.914 184.748C67.3673 184.588 67.734 184.355 68.014 184.048C68.3007 183.742 68.444 183.365 68.444 182.918C68.444 182.718 68.4107 182.535 68.344 182.368C68.2773 182.195 68.1773 182.042 68.044 181.908C67.9173 181.775 67.7507 181.655 67.544 181.548C67.344 181.435 67.1107 181.338 66.844 181.258L63.124 180.158C62.804 180.065 62.4573 179.942 62.084 179.788C61.7173 179.628 61.3673 179.412 61.034 179.138C60.7073 178.858 60.4373 178.505 60.224 178.078C60.0173 177.645 59.914 177.112 59.914 176.478C59.914 175.552 60.1473 174.775 60.614 174.148C61.0873 173.515 61.7207 173.042 62.514 172.728C63.314 172.415 64.2007 172.262 65.174 172.268C66.1607 172.275 67.0407 172.445 67.814 172.778C68.5873 173.105 69.234 173.582 69.754 174.208C70.274 174.835 70.6407 175.592 70.854 176.478L68.264 176.928C68.1573 176.422 67.9507 175.992 67.644 175.638C67.344 175.278 66.974 175.005 66.534 174.818C66.1007 174.632 65.6373 174.532 65.144 174.518C64.664 174.512 64.2173 174.585 63.804 174.738C63.3973 174.885 63.0673 175.098 62.814 175.378C62.5673 175.658 62.444 175.985 62.444 176.358C62.444 176.712 62.5507 177.002 62.764 177.228C62.9773 177.448 63.2407 177.625 63.554 177.758C63.874 177.885 64.1973 177.992 64.524 178.078L67.104 178.798C67.4573 178.892 67.854 179.018 68.294 179.178C68.734 179.338 69.1573 179.562 69.564 179.848C69.9707 180.135 70.304 180.512 70.564 180.978C70.8307 181.445 70.964 182.038 70.964 182.758C70.964 183.505 70.8073 184.162 70.494 184.728C70.1873 185.288 69.7707 185.755 69.244 186.128C68.7173 186.502 68.114 186.782 67.434 186.968C66.7607 187.155 66.054 187.248 65.314 187.248ZM78.7515 187.248C77.6982 187.248 76.7482 187.065 75.9015 186.698C75.0615 186.332 74.3682 185.808 73.8215 185.128C73.2815 184.442 72.9382 183.628 72.7915 182.688L75.2915 182.308C75.5048 183.162 75.9415 183.822 76.6015 184.288C77.2682 184.755 78.0348 184.988 78.9015 184.988C79.4148 184.988 79.8982 184.908 80.3515 184.748C80.8048 184.588 81.1715 184.355 81.4515 184.048C81.7382 183.742 81.8815 183.365 81.8815 182.918C81.8815 182.718 81.8482 182.535 81.7815 182.368C81.7148 182.195 81.6148 182.042 81.4815 181.908C81.3548 181.775 81.1882 181.655 80.9815 181.548C80.7815 181.435 80.5482 181.338 80.2815 181.258L76.5615 180.158C76.2415 180.065 75.8948 179.942 75.5215 179.788C75.1548 179.628 74.8048 179.412 74.4715 179.138C74.1448 178.858 73.8748 178.505 73.6615 178.078C73.4548 177.645 73.3515 177.112 73.3515 176.478C73.3515 175.552 73.5848 174.775 74.0515 174.148C74.5248 173.515 75.1582 173.042 75.9515 172.728C76.7515 172.415 77.6382 172.262 78.6115 172.268C79.5982 172.275 80.4782 172.445 81.2515 172.778C82.0248 173.105 82.6715 173.582 83.1915 174.208C83.7115 174.835 84.0782 175.592 84.2915 176.478L81.7015 176.928C81.5948 176.422 81.3882 175.992 81.0815 175.638C80.7815 175.278 80.4115 175.005 79.9715 174.818C79.5382 174.632 79.0748 174.532 78.5815 174.518C78.1015 174.512 77.6548 174.585 77.2415 174.738C76.8348 174.885 76.5048 175.098 76.2515 175.378C76.0048 175.658 75.8815 175.985 75.8815 176.358C75.8815 176.712 75.9882 177.002 76.2015 177.228C76.4148 177.448 76.6782 177.625 76.9915 177.758C77.3115 177.885 77.6348 177.992 77.9615 178.078L80.5415 178.798C80.8948 178.892 81.2915 179.018 81.7315 179.178C82.1715 179.338 82.5948 179.562 83.0015 179.848C83.4082 180.135 83.7415 180.512 84.0015 180.978C84.2682 181.445 84.4015 182.038 84.4015 182.758C84.4015 183.505 84.2448 184.162 83.9315 184.728C83.6248 185.288 83.2082 185.755 82.6815 186.128C82.1548 186.502 81.5515 186.782 80.8715 186.968C80.1982 187.155 79.4915 187.248 78.7515 187.248ZM90.686 187.218C89.966 187.218 89.286 187.078 88.646 186.798C88.006 186.518 87.4493 186.122 86.976 185.608C86.5093 185.095 86.1727 184.488 85.966 183.788L88.296 183.158C88.4627 183.732 88.766 184.175 89.206 184.488C89.6527 184.795 90.1427 184.945 90.676 184.938C91.1493 184.938 91.5727 184.828 91.946 184.608C92.3193 184.388 92.6127 184.092 92.826 183.718C93.0393 183.338 93.146 182.915 93.146 182.448C93.146 181.735 92.916 181.138 92.456 180.658C91.996 180.178 91.4027 179.938 90.676 179.938C90.456 179.938 90.2393 179.968 90.026 180.028C89.8193 180.088 89.6193 180.172 89.426 180.278L88.326 178.378L93.166 174.238L93.376 174.818H86.526V172.548H95.356V174.828L91.466 178.568L91.446 177.858C92.3193 177.918 93.0627 178.162 93.676 178.588C94.296 179.015 94.7693 179.565 95.096 180.238C95.4293 180.912 95.596 181.648 95.596 182.448C95.596 183.355 95.3727 184.168 94.926 184.888C94.486 185.608 93.8927 186.178 93.146 186.598C92.406 187.012 91.586 187.218 90.686 187.218Z" fill="black"/>
<path d="M46.2641 96.0648L41 37H98.8625L93.5914 96.0555L69.8961 102.625L46.2641 96.0648Z" fill="#1572B6"/>
<path d="M69.9312 97.6048L89.0796 92.2962L93.5843 41.8306H69.9312V97.6048Z" fill="#33A9DC"/>
<path d="M69.9312 63.2289H79.5171L80.178 55.8109H69.9312V48.5664H88.0952L87.9218 50.5094L86.1429 70.4734H69.9312V63.2289Z" fill="white"/>
<path d="M69.9757 82.0421L69.9429 82.0515L61.8757 79.8718L61.3601 74.0945H54.0874L55.1022 85.4687L69.9405 89.589L69.9757 89.5796V82.0421Z" fill="#EBEBEB"/>
<path d="M78.9007 70.1665L78.0289 79.8673L69.95 82.047V89.5845L84.8 85.4689L84.9101 84.2454L86.1687 70.1665H78.9007Z" fill="white"/>
<path d="M69.957 48.5664V55.8109H52.4585L52.3132 54.182L51.9828 50.5094L51.8093 48.5664H69.957ZM69.9312 63.2289V70.4734H61.9648L61.8195 68.8445L61.4914 65.1719L61.3179 63.2289H69.9312Z" fill="#EBEBEB"/>
<defs>
<linearGradient id="paint0_linear_3054_65" x1="130.881" y1="140.948" x2="-18.5384" y2="46.2902" gradientUnits="userSpaceOnUse">
<stop stop-color="#0066FF"/>
<stop offset="1" stop-color="#20ECD3"/>
</linearGradient>
</defs>
</svg>
