<svg width="141" height="193" viewBox="0 0 141 193" fill="none" xmlns="http://www.w3.org/2000/svg">
<path d="M42.4 186.948V172.548H51.07V174.958H44.81V178.548H49.87V180.948H44.81V186.948H42.4ZM53.0688 174.508V172.298H55.4788V174.508H53.0688ZM53.0688 186.948V176.148H55.4788V186.948H53.0688ZM63.0142 192.048C62.4142 192.048 61.8376 191.955 61.2842 191.768C60.7376 191.582 60.2442 191.312 59.8042 190.958C59.3642 190.612 59.0042 190.192 58.7242 189.698L60.9442 188.598C61.1509 188.992 61.4409 189.282 61.8142 189.468C62.1942 189.662 62.5976 189.758 63.0242 189.758C63.5242 189.758 63.9709 189.668 64.3642 189.488C64.7576 189.315 65.0609 189.055 65.2742 188.708C65.4942 188.368 65.5976 187.942 65.5842 187.428V184.358H65.8842V176.148H67.9942V187.468C67.9942 187.742 67.9809 188.002 67.9542 188.248C67.9342 188.502 67.8976 188.748 67.8442 188.988C67.6842 189.688 67.3776 190.262 66.9242 190.708C66.4709 191.162 65.9076 191.498 65.2342 191.718C64.5676 191.938 63.8276 192.048 63.0142 192.048ZM62.8042 187.248C61.8109 187.248 60.9442 186.998 60.2042 186.498C59.4642 185.998 58.8909 185.318 58.4842 184.458C58.0776 183.598 57.8742 182.628 57.8742 181.548C57.8742 180.455 58.0776 179.482 58.4842 178.628C58.8976 177.768 59.4809 177.092 60.2342 176.598C60.9876 176.098 61.8742 175.848 62.8942 175.848C63.9209 175.848 64.7809 176.098 65.4742 176.598C66.1742 177.092 66.7042 177.768 67.0642 178.628C67.4242 179.488 67.6042 180.462 67.6042 181.548C67.6042 182.622 67.4242 183.592 67.0642 184.458C66.7042 185.318 66.1676 185.998 65.4542 186.498C64.7409 186.998 63.8576 187.248 62.8042 187.248ZM63.1742 185.088C63.8209 185.088 64.3409 184.942 64.7342 184.648C65.1342 184.348 65.4242 183.932 65.6042 183.398C65.7909 182.865 65.8842 182.248 65.8842 181.548C65.8842 180.842 65.7909 180.225 65.6042 179.698C65.4242 179.165 65.1409 178.752 64.7542 178.458C64.3676 178.158 63.8676 178.008 63.2542 178.008C62.6076 178.008 62.0742 178.168 61.6542 178.488C61.2342 178.802 60.9242 179.228 60.7242 179.768C60.5242 180.302 60.4242 180.895 60.4242 181.548C60.4242 182.208 60.5209 182.808 60.7142 183.348C60.9142 183.882 61.2176 184.305 61.6242 184.618C62.0309 184.932 62.5476 185.088 63.1742 185.088ZM83.7684 186.948V180.388C83.7684 179.648 83.5851 179.072 83.2184 178.658C82.8518 178.238 82.3551 178.028 81.7284 178.028C81.3418 178.028 80.9951 178.118 80.6884 178.298C80.3818 178.472 80.1384 178.732 79.9584 179.078C79.7784 179.418 79.6884 179.825 79.6884 180.298L78.6184 179.668C78.6118 178.922 78.7784 178.265 79.1184 177.698C79.4651 177.125 79.9318 176.678 80.5184 176.358C81.1051 176.038 81.7584 175.878 82.4784 175.878C83.6718 175.878 84.5851 176.238 85.2184 176.958C85.8584 177.672 86.1784 178.612 86.1784 179.778V186.948H83.7684ZM70.7784 186.948V176.148H72.9084V179.498H73.2084V186.948H70.7784ZM77.2884 186.948V180.418C77.2884 179.665 77.1051 179.078 76.7384 178.658C76.3718 178.238 75.8718 178.028 75.2384 178.028C74.6251 178.028 74.1318 178.238 73.7584 178.658C73.3918 179.078 73.2084 179.625 73.2084 180.298L72.1284 179.578C72.1284 178.878 72.3018 178.248 72.6484 177.688C72.9951 177.128 73.4618 176.688 74.0484 176.368C74.6418 176.042 75.3051 175.878 76.0384 175.878C76.8451 175.878 77.5184 176.052 78.0584 176.398C78.6051 176.738 79.0118 177.205 79.2784 177.798C79.5518 178.385 79.6884 179.048 79.6884 179.788V186.948H77.2884ZM91.8067 187.248C91.0267 187.248 90.3667 187.102 89.8267 186.808C89.2867 186.508 88.8767 186.112 88.5967 185.618C88.3234 185.125 88.1867 184.582 88.1867 183.988C88.1867 183.468 88.2734 183.002 88.4467 182.588C88.6201 182.168 88.8867 181.808 89.2467 181.508C89.6067 181.202 90.0734 180.952 90.6467 180.758C91.0801 180.618 91.5867 180.492 92.1667 180.378C92.7534 180.265 93.3867 180.162 94.0667 180.068C94.7534 179.968 95.4701 179.862 96.2167 179.748L95.3567 180.238C95.3634 179.492 95.1967 178.942 94.8567 178.588C94.5167 178.235 93.9434 178.058 93.1367 178.058C92.6501 178.058 92.1801 178.172 91.7267 178.398C91.2734 178.625 90.9567 179.015 90.7767 179.568L88.5767 178.878C88.8434 177.965 89.3501 177.232 90.0967 176.678C90.8501 176.125 91.8634 175.848 93.1367 175.848C94.0967 175.848 94.9401 176.005 95.6667 176.318C96.4001 176.632 96.9434 177.145 97.2967 177.858C97.4901 178.238 97.6067 178.628 97.6467 179.028C97.6867 179.422 97.7067 179.852 97.7067 180.318V186.948H95.5967V184.608L95.9467 184.988C95.4601 185.768 94.8901 186.342 94.2367 186.708C93.5901 187.068 92.7801 187.248 91.8067 187.248ZM92.2867 185.328C92.8334 185.328 93.3001 185.232 93.6867 185.038C94.0734 184.845 94.3801 184.608 94.6067 184.328C94.8401 184.048 94.9967 183.785 95.0767 183.538C95.2034 183.232 95.2734 182.882 95.2867 182.488C95.3067 182.088 95.3167 181.765 95.3167 181.518L96.0567 181.738C95.3301 181.852 94.7067 181.952 94.1867 182.038C93.6667 182.125 93.2201 182.208 92.8467 182.288C92.4734 182.362 92.1434 182.445 91.8567 182.538C91.5767 182.638 91.3401 182.755 91.1467 182.888C90.9534 183.022 90.8034 183.175 90.6967 183.348C90.5967 183.522 90.5467 183.725 90.5467 183.958C90.5467 184.225 90.6134 184.462 90.7467 184.668C90.8801 184.868 91.0734 185.028 91.3267 185.148C91.5867 185.268 91.9067 185.328 92.2867 185.328Z" fill="black"/>
<path d="M70.7242 1.87639L129.757 35.9588C129.911 36.0481 130.007 36.2132 130.007 36.3918V104.557C130.007 104.735 129.911 104.9 129.757 104.99L70.7242 139.072C70.5695 139.161 70.3789 139.161 70.2242 139.072L11.1918 104.99C11.037 104.9 10.9417 104.735 10.9417 104.557V36.3918C10.9417 36.2132 11.0371 36.0481 11.1917 35.9588L70.2242 1.87639C70.3789 1.78707 70.5695 1.78707 70.7242 1.87639Z" stroke="url(#paint0_linear_3227_110)" stroke-width="3"/>
<path d="M54.7218 118C63.4003 118 70.4437 110.957 70.4437 102.278V86.5564H54.7218C46.0434 86.5564 39 93.5998 39 102.278C39 110.957 46.0434 118 54.7218 118Z" fill="#0ACF83"/>
<path d="M39 70.4999C39 61.6368 46.0434 54.4436 54.7218 54.4436H70.4437V86.5563H54.7218C46.0434 86.5563 39 79.363 39 70.4999Z" fill="#A259FF"/>
<path d="M39 38.7218C39 30.0434 46.0434 23 54.7218 23H70.4437V54.4437H54.7218C46.0434 54.4437 39 47.4003 39 38.7218Z" fill="#F24E1E"/>
<path d="M70.4436 23H86.4999C95.363 23 102.556 30.0434 102.556 38.7218C102.556 47.4003 95.363 54.4437 86.4999 54.4437H70.4436V23Z" fill="#FF7262"/>
<path d="M102.556 70.4999C102.556 79.363 95.363 86.5563 86.4999 86.5563C77.6368 86.5563 70.4436 79.363 70.4436 70.4999C70.4436 61.6368 77.6368 54.4436 86.4999 54.4436C95.363 54.4436 102.556 61.6368 102.556 70.4999Z" fill="#1ABCFE"/>
<defs>
<linearGradient id="paint0_linear_3227_110" x1="130.881" y1="140.948" x2="-18.5384" y2="46.2902" gradientUnits="userSpaceOnUse">
<stop stop-color="#0066FF"/>
<stop offset="1" stop-color="#20ECD3"/>
</linearGradient>
</defs>
</svg>
