<svg width="141" height="193" viewBox="0 0 141 193" fill="none" xmlns="http://www.w3.org/2000/svg">
<path d="M70.2242 1.87639C70.3789 1.78707 70.5695 1.78707 70.7242 1.87639L129.757 35.9588C129.911 36.0481 130.007 36.2132 130.007 36.3918V104.557C130.007 104.735 129.911 104.9 129.757 104.99L70.7242 139.072C70.5695 139.161 70.3789 139.161 70.2242 139.072L11.1918 104.99C11.037 104.9 10.9417 104.735 10.9417 104.557V36.3918C10.9417 36.2132 11.0371 36.0481 11.1917 35.9588L70.2242 1.87639L69.4742 0.577352L70.2242 1.87639Z" stroke="url(#paint0_linear_3241_44)" stroke-width="3"/>
<path d="M23.6081 187.248C22.5081 187.248 21.5915 186.962 20.8581 186.388C20.1315 185.815 19.6215 185.042 19.3281 184.068L21.7081 183.498C21.7815 183.905 21.9948 184.255 22.3481 184.548C22.7015 184.842 23.0915 184.988 23.5181 184.988C23.7981 184.988 24.0948 184.915 24.4081 184.768C24.7215 184.615 24.9548 184.372 25.1081 184.038C25.2015 183.825 25.2548 183.572 25.2681 183.278C25.2881 182.978 25.2981 182.632 25.2981 182.238V172.548H27.7381V182.238C27.7381 182.685 27.7348 183.078 27.7281 183.418C27.7281 183.752 27.6948 184.068 27.6281 184.368C27.5681 184.662 27.4448 184.965 27.2581 185.278C26.8648 185.958 26.3515 186.458 25.7181 186.778C25.0848 187.092 24.3815 187.248 23.6081 187.248ZM33.7677 187.248C32.9877 187.248 32.3277 187.102 31.7877 186.808C31.2477 186.508 30.8377 186.112 30.5577 185.618C30.2843 185.125 30.1477 184.582 30.1477 183.988C30.1477 183.468 30.2343 183.002 30.4077 182.588C30.581 182.168 30.8477 181.808 31.2077 181.508C31.5677 181.202 32.0343 180.952 32.6077 180.758C33.041 180.618 33.5477 180.492 34.1277 180.378C34.7143 180.265 35.3477 180.162 36.0277 180.068C36.7143 179.968 37.431 179.862 38.1777 179.748L37.3177 180.238C37.3243 179.492 37.1577 178.942 36.8177 178.588C36.4777 178.235 35.9043 178.058 35.0977 178.058C34.611 178.058 34.141 178.172 33.6877 178.398C33.2343 178.625 32.9177 179.015 32.7377 179.568L30.5377 178.878C30.8043 177.965 31.311 177.232 32.0577 176.678C32.811 176.125 33.8243 175.848 35.0977 175.848C36.0577 175.848 36.901 176.005 37.6277 176.318C38.361 176.632 38.9043 177.145 39.2577 177.858C39.451 178.238 39.5677 178.628 39.6077 179.028C39.6477 179.422 39.6677 179.852 39.6677 180.318V186.948H37.5577V184.608L37.9077 184.988C37.421 185.768 36.851 186.342 36.1977 186.708C35.551 187.068 34.741 187.248 33.7677 187.248ZM34.2477 185.328C34.7943 185.328 35.261 185.232 35.6477 185.038C36.0343 184.845 36.341 184.608 36.5677 184.328C36.801 184.048 36.9577 183.785 37.0377 183.538C37.1643 183.232 37.2343 182.882 37.2477 182.488C37.2677 182.088 37.2777 181.765 37.2777 181.518L38.0177 181.738C37.291 181.852 36.6677 181.952 36.1477 182.038C35.6277 182.125 35.181 182.208 34.8077 182.288C34.4343 182.362 34.1043 182.445 33.8177 182.538C33.5377 182.638 33.301 182.755 33.1077 182.888C32.9143 183.022 32.7643 183.175 32.6577 183.348C32.5577 183.522 32.5077 183.725 32.5077 183.958C32.5077 184.225 32.5743 184.462 32.7077 184.668C32.841 184.868 33.0343 185.028 33.2877 185.148C33.5477 185.268 33.8677 185.328 34.2477 185.328ZM44.8005 186.948L40.8805 176.148H43.2905L46.0105 183.978L48.7205 176.148H51.1405L47.2205 186.948H44.8005ZM55.3497 187.248C54.5697 187.248 53.9097 187.102 53.3697 186.808C52.8297 186.508 52.4197 186.112 52.1397 185.618C51.8664 185.125 51.7297 184.582 51.7297 183.988C51.7297 183.468 51.8164 183.002 51.9897 182.588C52.163 182.168 52.4297 181.808 52.7897 181.508C53.1497 181.202 53.6164 180.952 54.1897 180.758C54.623 180.618 55.1297 180.492 55.7097 180.378C56.2964 180.265 56.9297 180.162 57.6097 180.068C58.2964 179.968 59.013 179.862 59.7597 179.748L58.8997 180.238C58.9064 179.492 58.7397 178.942 58.3997 178.588C58.0597 178.235 57.4864 178.058 56.6797 178.058C56.193 178.058 55.723 178.172 55.2697 178.398C54.8164 178.625 54.4997 179.015 54.3197 179.568L52.1197 178.878C52.3864 177.965 52.893 177.232 53.6397 176.678C54.393 176.125 55.4064 175.848 56.6797 175.848C57.6397 175.848 58.483 176.005 59.2097 176.318C59.943 176.632 60.4864 177.145 60.8397 177.858C61.033 178.238 61.1497 178.628 61.1897 179.028C61.2297 179.422 61.2497 179.852 61.2497 180.318V186.948H59.1397V184.608L59.4897 184.988C59.003 185.768 58.433 186.342 57.7797 186.708C57.133 187.068 56.323 187.248 55.3497 187.248ZM55.8297 185.328C56.3764 185.328 56.843 185.232 57.2297 185.038C57.6164 184.845 57.923 184.608 58.1497 184.328C58.383 184.048 58.5397 183.785 58.6197 183.538C58.7464 183.232 58.8164 182.882 58.8297 182.488C58.8497 182.088 58.8597 181.765 58.8597 181.518L59.5997 181.738C58.873 181.852 58.2497 181.952 57.7297 182.038C57.2097 182.125 56.763 182.208 56.3897 182.288C56.0164 182.362 55.6864 182.445 55.3997 182.538C55.1197 182.638 54.883 182.755 54.6897 182.888C54.4964 183.022 54.3464 183.175 54.2397 183.348C54.1397 183.522 54.0897 183.725 54.0897 183.958C54.0897 184.225 54.1564 184.462 54.2897 184.668C54.423 184.868 54.6164 185.028 54.8697 185.148C55.1297 185.268 55.4497 185.328 55.8297 185.328ZM69.1831 187.248C68.1298 187.248 67.1798 187.065 66.3331 186.698C65.4931 186.332 64.7998 185.808 64.2531 185.128C63.7131 184.442 63.3698 183.628 63.2231 182.688L65.7231 182.308C65.9365 183.162 66.3731 183.822 67.0331 184.288C67.6998 184.755 68.4665 184.988 69.3331 184.988C69.8465 184.988 70.3298 184.908 70.7831 184.748C71.2365 184.588 71.6031 184.355 71.8831 184.048C72.1698 183.742 72.3131 183.365 72.3131 182.918C72.3131 182.718 72.2798 182.535 72.2131 182.368C72.1465 182.195 72.0465 182.042 71.9131 181.908C71.7865 181.775 71.6198 181.655 71.4131 181.548C71.2131 181.435 70.9798 181.338 70.7131 181.258L66.9931 180.158C66.6731 180.065 66.3265 179.942 65.9531 179.788C65.5865 179.628 65.2365 179.412 64.9031 179.138C64.5765 178.858 64.3065 178.505 64.0931 178.078C63.8865 177.645 63.7831 177.112 63.7831 176.478C63.7831 175.552 64.0165 174.775 64.4831 174.148C64.9565 173.515 65.5898 173.042 66.3831 172.728C67.1831 172.415 68.0698 172.262 69.0431 172.268C70.0298 172.275 70.9098 172.445 71.6831 172.778C72.4565 173.105 73.1031 173.582 73.6231 174.208C74.1431 174.835 74.5098 175.592 74.7231 176.478L72.1331 176.928C72.0265 176.422 71.8198 175.992 71.5131 175.638C71.2131 175.278 70.8431 175.005 70.4031 174.818C69.9698 174.632 69.5065 174.532 69.0131 174.518C68.5331 174.512 68.0865 174.585 67.6731 174.738C67.2665 174.885 66.9365 175.098 66.6831 175.378C66.4365 175.658 66.3131 175.985 66.3131 176.358C66.3131 176.712 66.4198 177.002 66.6331 177.228C66.8465 177.448 67.1098 177.625 67.4231 177.758C67.7431 177.885 68.0665 177.992 68.3931 178.078L70.9731 178.798C71.3265 178.892 71.7231 179.018 72.1631 179.178C72.6031 179.338 73.0265 179.562 73.4331 179.848C73.8398 180.135 74.1731 180.512 74.4331 180.978C74.6998 181.445 74.8331 182.038 74.8331 182.758C74.8331 183.505 74.6765 184.162 74.3631 184.728C74.0565 185.288 73.6398 185.755 73.1131 186.128C72.5865 186.502 71.9831 186.782 71.3031 186.968C70.6298 187.155 69.9231 187.248 69.1831 187.248ZM81.6877 187.248C80.5743 187.248 79.6243 187.002 78.8377 186.508C78.051 186.008 77.4477 185.328 77.0277 184.468C76.6143 183.608 76.4043 182.635 76.3977 181.548C76.4043 180.442 76.621 179.462 77.0477 178.608C77.481 177.748 78.0943 177.075 78.8877 176.588C79.681 176.095 80.6243 175.848 81.7177 175.848C82.9443 175.848 83.981 176.158 84.8277 176.778C85.681 177.392 86.2377 178.232 86.4977 179.298L84.0977 179.948C83.911 179.368 83.601 178.918 83.1677 178.598C82.7343 178.272 82.241 178.108 81.6877 178.108C81.061 178.108 80.5443 178.258 80.1377 178.558C79.731 178.852 79.431 179.258 79.2377 179.778C79.0443 180.298 78.9477 180.888 78.9477 181.548C78.9477 182.575 79.1777 183.405 79.6377 184.038C80.0977 184.672 80.781 184.988 81.6877 184.988C82.3277 184.988 82.831 184.842 83.1977 184.548C83.571 184.255 83.851 183.832 84.0377 183.278L86.4977 183.828C86.1643 184.928 85.581 185.775 84.7477 186.368C83.9143 186.955 82.8943 187.248 81.6877 187.248ZM88.5016 186.948V176.148H90.6316V178.778L90.3716 178.438C90.5049 178.078 90.6816 177.752 90.9016 177.458C91.1282 177.158 91.3982 176.912 91.7116 176.718C91.9782 176.538 92.2716 176.398 92.5916 176.298C92.9182 176.192 93.2516 176.128 93.5916 176.108C93.9316 176.082 94.2616 176.095 94.5816 176.148V178.398C94.2616 178.305 93.8916 178.275 93.4716 178.308C93.0582 178.342 92.6849 178.458 92.3516 178.658C92.0182 178.838 91.7449 179.068 91.5316 179.348C91.3249 179.628 91.1716 179.948 91.0716 180.308C90.9716 180.662 90.9216 181.045 90.9216 181.458V186.948H88.5016ZM96.6898 174.508V172.298H99.0998V174.508H96.6898ZM96.6898 186.948V176.148H99.0998V186.948H96.6898ZM107.285 187.248C106.232 187.248 105.349 186.998 104.635 186.498C103.922 185.998 103.385 185.318 103.025 184.458C102.665 183.592 102.485 182.622 102.485 181.548C102.485 180.462 102.665 179.488 103.025 178.628C103.385 177.768 103.912 177.092 104.605 176.598C105.305 176.098 106.169 175.848 107.195 175.848C108.215 175.848 109.099 176.098 109.845 176.598C110.599 177.092 111.182 177.768 111.595 178.628C112.009 179.482 112.215 180.455 112.215 181.548C112.215 182.628 112.012 183.598 111.605 184.458C111.199 185.318 110.625 185.998 109.885 186.498C109.145 186.998 108.279 187.248 107.285 187.248ZM102.075 191.748V176.148H104.205V183.728H104.505V191.748H102.075ZM106.915 185.088C107.542 185.088 108.059 184.932 108.465 184.618C108.872 184.305 109.172 183.882 109.365 183.348C109.565 182.808 109.665 182.208 109.665 181.548C109.665 180.895 109.565 180.302 109.365 179.768C109.165 179.228 108.855 178.802 108.435 178.488C108.015 178.168 107.482 178.008 106.835 178.008C106.222 178.008 105.722 178.158 105.335 178.458C104.949 178.752 104.662 179.165 104.475 179.698C104.295 180.225 104.205 180.842 104.205 181.548C104.205 182.248 104.295 182.865 104.475 183.398C104.662 183.932 104.952 184.348 105.345 184.648C105.745 184.942 106.269 185.088 106.915 185.088ZM120.75 186.948C120.036 187.082 119.336 187.138 118.65 187.118C117.97 187.105 117.36 186.982 116.82 186.748C116.28 186.508 115.87 186.132 115.59 185.618C115.343 185.152 115.213 184.675 115.2 184.188C115.186 183.702 115.18 183.152 115.18 182.538V173.148H117.58V182.398C117.58 182.832 117.583 183.212 117.59 183.538C117.603 183.865 117.673 184.132 117.8 184.338C118.04 184.738 118.423 184.962 118.95 185.008C119.476 185.055 120.076 185.028 120.75 184.928V186.948ZM113.22 178.038V176.148H120.75V178.038H113.22Z" fill="black"/>
<path d="M37 57C37 45.9543 45.9543 37 57 37H84C95.0457 37 104 45.9543 104 57V84C104 95.0457 95.0457 104 84 104H57C45.9543 104 37 95.0457 37 84V57Z" fill="#F0DB4F"/>
<path d="M97.819 86.4118C97.3292 83.387 95.3401 80.8462 89.448 78.477C87.4012 77.5443 85.1193 76.8764 84.4394 75.3382C84.198 74.4431 84.1659 73.9389 84.3187 73.397C84.7572 71.6386 86.874 71.0904 88.5517 71.5946C89.6323 71.9537 90.6551 72.7795 91.2721 74.0967C94.1575 72.244 94.1516 72.2562 96.1664 70.9828C95.4287 69.8488 95.0351 69.3255 94.5522 68.8404C92.8168 66.9182 90.4522 65.9283 86.6705 66.004L84.7006 66.2567C82.8129 66.7297 81.014 67.7122 79.9591 69.0295C76.7938 72.5909 77.6964 78.8239 81.5481 81.3891C85.3426 84.2132 90.9169 84.8557 91.6289 87.4966C92.3217 90.7296 89.2327 91.7762 86.1625 91.4044C83.8999 90.9378 82.6415 89.7974 81.281 87.7238C78.777 89.1608 78.777 89.1608 76.2025 90.629C76.813 91.9526 77.4545 92.5517 78.4779 93.6984C83.3214 98.5702 95.4421 98.3308 97.616 90.9569C97.7041 90.7037 98.2896 89.0151 97.819 86.4118ZM72.776 66.3944H66.5218L66.4961 82.4283C66.4961 85.8382 66.674 88.9643 66.1148 89.9224C65.1998 91.807 62.8287 91.5734 61.7482 91.2079C60.6484 90.6719 60.0892 89.9097 59.4413 88.8324C59.2634 88.5231 59.1299 88.2837 59.085 88.2651L54 91.353C54.8455 93.0739 56.0911 94.5676 57.6866 95.5379C60.0699 96.9563 63.2732 97.3912 66.6233 96.6285C68.8036 95.9987 70.6848 94.6941 71.6698 92.7084C73.0938 90.1052 72.7883 86.9542 72.7754 83.4691C72.8075 77.7832 72.776 72.0983 72.776 66.3944Z" fill="#323330"/>
<defs>
<linearGradient id="paint0_linear_3241_44" x1="130.881" y1="140.948" x2="-18.5384" y2="46.2902" gradientUnits="userSpaceOnUse">
<stop stop-color="#0066FF"/>
<stop offset="1" stop-color="#20ECD3"/>
</linearGradient>
</defs>
</svg>
