<svg width="141" height="193" viewBox="0 0 141 193" fill="none" xmlns="http://www.w3.org/2000/svg">
<path d="M104.595 92.1402C100.175 92.0199 96.8004 92.4307 93.9133 93.6392C93.0938 93.9839 91.7868 93.9914 91.6531 95.0128C92.1037 95.4828 92.1728 96.1841 92.5322 96.7625C93.2205 97.8677 94.3842 99.3541 95.4218 100.135C96.5557 100.984 97.7245 101.895 98.9402 102.631C101.104 103.942 103.518 104.691 105.598 106.003C106.826 106.778 108.044 107.752 109.242 108.626C109.834 109.057 110.233 109.729 111 110V109.877C110.596 109.366 110.492 108.661 110.121 108.127L108.487 106.503C106.89 104.396 104.862 102.545 102.708 101.009C100.99 99.7813 97.1426 98.1248 96.4271 96.1388L96.3009 96.0134C97.5191 95.8754 98.9452 95.4375 100.072 95.1369C101.96 94.6347 103.65 94.7652 105.598 94.263L108.237 93.5151V93.0154C107.252 92.0111 106.549 90.6797 105.474 89.7692C102.659 87.3869 99.5892 85.0089 96.4277 83.0254C94.6745 81.9253 92.5081 81.2089 90.6491 80.2764C90.0229 79.9638 88.9257 79.7987 88.5125 79.277C87.537 78.0414 87.0046 76.4738 86.2522 75.0315C84.6753 72.0115 83.1275 68.7162 81.7286 65.5386C80.7753 63.373 80.1542 61.2364 78.9658 59.2945C73.2613 49.9711 67.1214 44.3426 57.609 38.8117C55.5839 37.6353 53.1475 37.1703 50.5722 36.5623L46.4251 36.3134C45.5808 35.9637 44.7042 34.9373 43.912 34.4376C40.7612 32.4573 32.6774 28.1525 30.3424 33.8132C28.8694 37.3845 32.5462 40.8695 33.8607 42.681C34.7842 43.9488 35.965 45.3734 36.6236 46.8012C37.0597 47.7413 37.1338 48.6813 37.5052 49.6737C38.4167 52.1203 39.2134 54.7831 40.3949 57.0426C40.9913 58.1868 41.6498 59.3909 42.4054 60.4148C42.8661 61.0424 43.6603 61.3209 43.7871 62.288C43.0094 63.3686 42.965 65.0447 42.5296 66.4107C40.566 72.5666 41.3088 80.2159 44.1636 84.7695C45.0402 86.1702 47.1052 89.1675 49.9422 88.0182C52.4255 87.0113 51.8709 83.8981 52.5814 81.149C52.7424 80.5265 52.6436 80.0684 52.9579 79.65V79.7754L55.2207 84.2698C56.8946 86.9502 59.8628 89.7509 62.381 91.6412C63.6861 92.621 64.7135 94.314 66.402 94.8874V94.762H66.2759C65.9489 94.2548 65.4367 94.0456 65.0209 93.6398C64.0379 92.6802 62.9439 91.4887 62.1313 90.3911C59.8413 87.3024 57.8181 83.9201 55.9762 80.4011C55.0946 78.72 54.3295 76.867 53.5867 75.1563C53.2996 74.4966 53.3046 73.4973 52.7076 73.1576C51.8956 74.4103 50.6971 75.4247 50.0683 76.9035C49.0656 79.2688 48.9344 82.1559 48.563 85.1463C48.3424 85.225 48.4394 85.1709 48.3107 85.2717C46.5601 84.8508 45.9465 83.0613 45.295 81.5233C43.6508 77.6394 43.3441 71.3852 44.7923 66.911C45.1663 65.7541 46.8599 62.1116 46.1741 61.0411C45.847 59.9756 44.7676 59.3575 44.1636 58.5428C43.4157 57.5359 42.6709 56.2096 42.1531 55.0452C40.8062 52.0176 40.18 48.6164 38.7609 45.5549C38.0827 44.0905 36.9386 42.6086 35.998 41.3093C34.9554 39.8671 33.7897 38.8035 32.9823 37.0613C32.6951 36.4413 32.3066 35.4489 32.73 34.8144C32.8663 34.3834 33.057 34.2039 33.4849 34.064C34.2125 33.5051 36.2433 34.2511 37.0007 34.5636C39.0163 35.3954 40.6972 36.188 42.4054 37.3127C43.2224 37.8514 44.052 38.8955 45.0421 39.186H46.1735C47.9412 39.5898 49.9219 39.3088 51.5756 39.8085C54.4969 40.6919 57.1139 42.0654 59.4908 43.5569C66.7304 48.1029 72.6528 54.5707 76.703 62.2918C77.3539 63.535 77.6366 64.7189 78.2109 66.0377C79.367 68.696 80.8254 71.4306 81.9764 74.0322C83.1275 76.6237 84.2468 79.243 85.8732 81.401C86.7276 82.5358 90.0254 83.1439 91.5257 83.7739C92.5778 84.2144 94.3012 84.675 95.2963 85.2729C97.1978 86.4128 99.0397 87.7712 100.825 89.0188C101.714 89.6438 104.457 91.0149 104.593 92.1421L104.595 92.1402ZM48.4343 44.5562C47.5134 44.5392 46.8624 44.6545 46.1741 44.8051V44.9304H46.2977C46.7382 45.8264 47.5134 46.4048 48.0578 47.1773L49.3128 49.801L49.4389 49.6781C50.2166 49.1319 50.5729 48.2604 50.5678 46.9291C50.2559 46.6014 50.2116 46.1957 49.939 45.8044C49.5828 45.2852 48.8869 44.9922 48.4337 44.5568L48.4343 44.5562Z" fill="#00618A"/>
<path d="M37.4 186.948V172.548H39.57L44.55 182.748L49.53 172.548H51.7V186.948H49.45V177.718L45.03 186.948H44.07L39.66 177.718V186.948H37.4ZM55.9294 191.748L58.0094 186.038L58.0494 187.718L53.3394 176.148H55.8494L59.1894 184.708H58.5494L61.7994 176.148H64.2094L58.1894 191.748H55.9294ZM71.0308 187.248C69.9774 187.248 69.0274 187.065 68.1808 186.698C67.3408 186.332 66.6474 185.808 66.1008 185.128C65.5608 184.442 65.2174 183.628 65.0708 182.688L67.5708 182.308C67.7841 183.162 68.2208 183.822 68.8808 184.288C69.5474 184.755 70.3141 184.988 71.1808 184.988C71.6941 184.988 72.1774 184.908 72.6308 184.748C73.0841 184.588 73.4508 184.355 73.7308 184.048C74.0174 183.742 74.1608 183.365 74.1608 182.918C74.1608 182.718 74.1274 182.535 74.0608 182.368C73.9941 182.195 73.8941 182.042 73.7608 181.908C73.6341 181.775 73.4674 181.655 73.2608 181.548C73.0608 181.435 72.8274 181.338 72.5608 181.258L68.8408 180.158C68.5208 180.065 68.1741 179.942 67.8008 179.788C67.4341 179.628 67.0841 179.412 66.7508 179.138C66.4241 178.858 66.1541 178.505 65.9408 178.078C65.7341 177.645 65.6308 177.112 65.6308 176.478C65.6308 175.552 65.8641 174.775 66.3308 174.148C66.8041 173.515 67.4374 173.042 68.2308 172.728C69.0308 172.415 69.9174 172.262 70.8908 172.268C71.8774 172.275 72.7574 172.445 73.5308 172.778C74.3041 173.105 74.9508 173.582 75.4708 174.208C75.9908 174.835 76.3574 175.592 76.5708 176.478L73.9808 176.928C73.8741 176.422 73.6674 175.992 73.3608 175.638C73.0608 175.278 72.6908 175.005 72.2508 174.818C71.8174 174.632 71.3541 174.532 70.8608 174.518C70.3808 174.512 69.9341 174.585 69.5208 174.738C69.1141 174.885 68.7841 175.098 68.5308 175.378C68.2841 175.658 68.1608 175.985 68.1608 176.358C68.1608 176.712 68.2674 177.002 68.4808 177.228C68.6941 177.448 68.9574 177.625 69.2708 177.758C69.5908 177.885 69.9141 177.992 70.2408 178.078L72.8208 178.798C73.1741 178.892 73.5708 179.018 74.0108 179.178C74.4508 179.338 74.8741 179.562 75.2808 179.848C75.6874 180.135 76.0208 180.512 76.2808 180.978C76.5474 181.445 76.6808 182.038 76.6808 182.758C76.6808 183.505 76.5241 184.162 76.2108 184.728C75.9041 185.288 75.4874 185.755 74.9608 186.128C74.4341 186.502 73.8308 186.782 73.1508 186.968C72.4774 187.155 71.7708 187.248 71.0308 187.248ZM90.1153 187.248L86.0053 183.158L87.5153 181.648L91.6053 185.738L90.1153 187.248ZM84.9353 187.248C83.4953 187.248 82.262 186.935 81.2353 186.308C80.2086 185.675 79.4186 184.795 78.8653 183.668C78.3186 182.542 78.0453 181.235 78.0453 179.748C78.0453 178.262 78.3186 176.955 78.8653 175.828C79.4186 174.702 80.2086 173.825 81.2353 173.198C82.262 172.565 83.4953 172.248 84.9353 172.248C86.3753 172.248 87.6086 172.565 88.6353 173.198C89.6686 173.825 90.4586 174.702 91.0053 175.828C91.5586 176.955 91.8353 178.262 91.8353 179.748C91.8353 181.235 91.5586 182.542 91.0053 183.668C90.4586 184.795 89.6686 185.675 88.6353 186.308C87.6086 186.935 86.3753 187.248 84.9353 187.248ZM84.9353 184.978C85.902 184.985 86.7053 184.772 87.3453 184.338C87.992 183.905 88.4753 183.295 88.7953 182.508C89.122 181.722 89.2853 180.802 89.2853 179.748C89.2853 178.695 89.122 177.782 88.7953 177.008C88.4753 176.228 87.992 175.622 87.3453 175.188C86.7053 174.755 85.902 174.532 84.9353 174.518C83.9686 174.512 83.1653 174.725 82.5253 175.158C81.8853 175.592 81.402 176.202 81.0753 176.988C80.7553 177.775 80.5953 178.695 80.5953 179.748C80.5953 180.802 80.7553 181.718 81.0753 182.498C81.3953 183.272 81.8753 183.875 82.5153 184.308C83.162 184.742 83.9686 184.965 84.9353 184.978ZM94.0258 186.948V172.548H96.4358V184.688H102.796V186.948H94.0258Z" fill="black"/>
<path d="M70.7242 1.87639L129.757 35.9588C129.911 36.0481 130.007 36.2132 130.007 36.3918V104.557C130.007 104.735 129.911 104.9 129.757 104.99L70.7242 139.072C70.5695 139.161 70.3789 139.161 70.2242 139.072L11.1918 104.99C11.037 104.9 10.9417 104.735 10.9417 104.557V36.3918C10.9417 36.2132 11.0371 36.0481 11.1917 35.9588L70.2242 1.87639C70.3789 1.78707 70.5695 1.78707 70.7242 1.87639Z" stroke="url(#paint0_linear_3227_109)" stroke-width="3"/>
<defs>
<linearGradient id="paint0_linear_3227_109" x1="130.881" y1="140.948" x2="-18.5384" y2="46.2902" gradientUnits="userSpaceOnUse">
<stop stop-color="#0066FF"/>
<stop offset="1" stop-color="#20ECD3"/>
</linearGradient>
</defs>
</svg>
