<svg width="141" height="193" viewBox="0 0 141 193" fill="none" xmlns="http://www.w3.org/2000/svg">
<path d="M102.911 91.0445C98.7095 90.9303 95.5016 91.3203 92.7571 92.4676C91.978 92.7948 90.7356 92.802 90.6085 93.7716C91.0369 94.2179 91.1025 94.8837 91.4442 95.4328C92.0985 96.482 93.2048 97.8931 94.1911 98.6343C95.269 99.4406 96.3801 100.305 97.5357 101.004C99.5928 102.249 101.888 102.96 103.865 104.205C105.032 104.941 106.19 105.866 107.329 106.696C107.892 107.105 108.271 107.743 109 108V107.883C108.616 107.398 108.517 106.729 108.164 106.222L106.611 104.68C105.093 102.68 103.165 100.923 101.118 99.4645C99.4843 98.2987 95.827 96.7261 95.1467 94.8406L95.0268 94.7215C96.1849 94.5905 97.5405 94.1748 98.6112 93.8895C100.407 93.4127 102.012 93.5365 103.865 93.0598L106.374 92.3498V91.8754C105.437 90.9219 104.768 89.6579 103.747 88.7936C101.071 86.5318 98.1527 84.2743 95.1473 82.3912C93.4807 81.3468 91.4213 80.6667 89.6541 79.7813C89.0588 79.4846 88.0158 79.3279 87.623 78.8326C86.6957 77.6596 86.1895 76.1713 85.4743 74.8021C83.9753 71.935 82.5039 68.8065 81.1741 65.7899C80.2679 63.7339 79.6774 61.7055 78.5477 59.8619C73.125 51.0106 67.2883 45.667 58.2456 40.4162C56.3205 39.2993 54.0044 38.8579 51.5563 38.2806L47.614 38.0444C46.8114 37.7124 45.9781 36.7379 45.225 36.2636C42.2298 34.3835 34.5452 30.2967 32.3255 35.6708C30.9252 39.0613 34.4204 42.3698 35.6701 44.0896C36.548 45.2931 37.6705 46.6456 38.2965 48.0011C38.711 48.8936 38.7815 49.7861 39.1346 50.7282C40.001 53.051 40.7584 55.5789 41.8815 57.724C42.4485 58.8103 43.0745 59.9534 43.7927 60.9254C44.2308 61.5212 44.9858 61.7856 45.1063 62.7038C44.367 63.7297 44.3248 65.3209 43.9108 66.6177C42.0442 72.462 42.7504 79.7239 45.4642 84.047C46.2975 85.3767 48.2605 88.2223 50.9574 87.1312C53.3181 86.1753 52.7909 83.2197 53.4663 80.6098C53.6194 80.0188 53.5254 79.5839 53.8242 79.1867V79.3058L55.9752 83.5726C57.5665 86.1173 60.3881 88.7762 62.782 90.5708C64.0226 91.5009 64.9993 93.1082 66.6044 93.6526V93.5336H66.4845C66.1736 93.052 65.6868 92.8534 65.2915 92.4682C64.357 91.5572 63.317 90.426 62.5446 89.384C60.3677 86.4517 58.4444 83.2406 56.6934 79.8998C55.8553 78.3038 55.1281 76.5446 54.4219 74.9205C54.149 74.2942 54.1538 73.3455 53.5862 73.0231C52.8144 74.2123 51.675 75.1753 51.0773 76.5793C50.1241 78.8248 49.9994 81.5657 49.6463 84.4047C49.4366 84.4795 49.5288 84.428 49.4065 84.5237C47.7423 84.1242 47.1591 82.4253 46.5397 80.9651C44.9767 77.2779 44.6851 71.3404 46.0619 67.0927C46.4174 65.9944 48.0273 62.5363 47.3754 61.52C47.0645 60.5085 46.0384 59.9217 45.4642 59.1482C44.7532 58.1923 44.0452 56.9332 43.5529 55.8277C42.2726 52.9535 41.6773 49.7245 40.3282 46.8179C39.6835 45.4277 38.596 44.0208 37.7018 42.7873C36.7106 41.4181 35.6026 40.4084 34.835 38.7544C34.562 38.1658 34.1927 37.2237 34.5952 36.6213C34.7247 36.2121 34.9061 36.0416 35.3128 35.9088C36.0045 35.3783 37.935 36.0865 38.655 36.3832C40.571 37.1728 42.1689 37.9253 43.7927 38.9931C44.5694 39.5045 45.3581 40.4957 46.2993 40.7715H47.3748C49.0552 41.1549 50.9381 40.8881 52.5101 41.3625C55.2872 42.2011 57.775 43.5052 60.0345 44.9211C66.9165 49.237 72.5465 55.3773 76.3967 62.7074C77.0155 63.8876 77.2842 65.0116 77.8301 66.2636C78.9291 68.7873 80.3155 71.3835 81.4097 73.8534C82.5039 76.3137 83.568 78.8003 85.114 80.8491C85.9262 81.9264 89.0612 82.5037 90.4874 83.1019C91.4876 83.52 93.1258 83.9573 94.0718 84.5249C95.8794 85.607 97.6303 86.8967 99.3276 88.0811C100.172 88.6745 102.78 89.9762 102.91 91.0463L102.911 91.0445ZM49.524 45.8698C48.6485 45.8536 48.0297 45.9631 47.3754 46.1061V46.2251H47.4929C47.9116 47.0757 48.6485 47.6248 49.1661 48.3582L50.3591 50.8491L50.479 50.7324C51.2183 50.2138 51.5569 49.3865 51.5521 48.1225C51.2556 47.8115 51.2135 47.4263 50.9544 47.0548C50.6158 46.5619 49.9548 46.2831 49.524 45.8698Z" fill="#00618A"/>
<path d="M37.4 186.948V172.548H39.57L44.55 182.748L49.53 172.548H51.7V186.948H49.45V177.718L45.03 186.948H44.07L39.66 177.718V186.948H37.4ZM55.9294 191.748L58.0094 186.038L58.0494 187.718L53.3394 176.148H55.8494L59.1894 184.708H58.5494L61.7994 176.148H64.2094L58.1894 191.748H55.9294ZM71.0308 187.248C69.9774 187.248 69.0274 187.065 68.1808 186.698C67.3408 186.332 66.6474 185.808 66.1008 185.128C65.5608 184.442 65.2174 183.628 65.0708 182.688L67.5708 182.308C67.7841 183.162 68.2208 183.822 68.8808 184.288C69.5474 184.755 70.3141 184.988 71.1808 184.988C71.6941 184.988 72.1774 184.908 72.6308 184.748C73.0841 184.588 73.4508 184.355 73.7308 184.048C74.0174 183.742 74.1608 183.365 74.1608 182.918C74.1608 182.718 74.1274 182.535 74.0608 182.368C73.9941 182.195 73.8941 182.042 73.7608 181.908C73.6341 181.775 73.4674 181.655 73.2608 181.548C73.0608 181.435 72.8274 181.338 72.5608 181.258L68.8408 180.158C68.5208 180.065 68.1741 179.942 67.8008 179.788C67.4341 179.628 67.0841 179.412 66.7508 179.138C66.4241 178.858 66.1541 178.505 65.9408 178.078C65.7341 177.645 65.6308 177.112 65.6308 176.478C65.6308 175.552 65.8641 174.775 66.3308 174.148C66.8041 173.515 67.4374 173.042 68.2308 172.728C69.0308 172.415 69.9174 172.262 70.8908 172.268C71.8774 172.275 72.7574 172.445 73.5308 172.778C74.3041 173.105 74.9508 173.582 75.4708 174.208C75.9908 174.835 76.3574 175.592 76.5708 176.478L73.9808 176.928C73.8741 176.422 73.6674 175.992 73.3608 175.638C73.0608 175.278 72.6908 175.005 72.2508 174.818C71.8174 174.632 71.3541 174.532 70.8608 174.518C70.3808 174.512 69.9341 174.585 69.5208 174.738C69.1141 174.885 68.7841 175.098 68.5308 175.378C68.2841 175.658 68.1608 175.985 68.1608 176.358C68.1608 176.712 68.2674 177.002 68.4808 177.228C68.6941 177.448 68.9574 177.625 69.2708 177.758C69.5908 177.885 69.9141 177.992 70.2408 178.078L72.8208 178.798C73.1741 178.892 73.5708 179.018 74.0108 179.178C74.4508 179.338 74.8741 179.562 75.2808 179.848C75.6874 180.135 76.0208 180.512 76.2808 180.978C76.5474 181.445 76.6808 182.038 76.6808 182.758C76.6808 183.505 76.5241 184.162 76.2108 184.728C75.9041 185.288 75.4874 185.755 74.9608 186.128C74.4341 186.502 73.8308 186.782 73.1508 186.968C72.4774 187.155 71.7708 187.248 71.0308 187.248ZM90.1153 187.248L86.0053 183.158L87.5153 181.648L91.6053 185.738L90.1153 187.248ZM84.9353 187.248C83.4953 187.248 82.262 186.935 81.2353 186.308C80.2086 185.675 79.4186 184.795 78.8653 183.668C78.3186 182.542 78.0453 181.235 78.0453 179.748C78.0453 178.262 78.3186 176.955 78.8653 175.828C79.4186 174.702 80.2086 173.825 81.2353 173.198C82.262 172.565 83.4953 172.248 84.9353 172.248C86.3753 172.248 87.6086 172.565 88.6353 173.198C89.6686 173.825 90.4586 174.702 91.0053 175.828C91.5586 176.955 91.8353 178.262 91.8353 179.748C91.8353 181.235 91.5586 182.542 91.0053 183.668C90.4586 184.795 89.6686 185.675 88.6353 186.308C87.6086 186.935 86.3753 187.248 84.9353 187.248ZM84.9353 184.978C85.902 184.985 86.7053 184.772 87.3453 184.338C87.992 183.905 88.4753 183.295 88.7953 182.508C89.122 181.722 89.2853 180.802 89.2853 179.748C89.2853 178.695 89.122 177.782 88.7953 177.008C88.4753 176.228 87.992 175.622 87.3453 175.188C86.7053 174.755 85.902 174.532 84.9353 174.518C83.9686 174.512 83.1653 174.725 82.5253 175.158C81.8853 175.592 81.402 176.202 81.0753 176.988C80.7553 177.775 80.5953 178.695 80.5953 179.748C80.5953 180.802 80.7553 181.718 81.0753 182.498C81.3953 183.272 81.8753 183.875 82.5153 184.308C83.162 184.742 83.9686 184.965 84.9353 184.978ZM94.0258 186.948V172.548H96.4358V184.688H102.796V186.948H94.0258Z" fill="black"/>
<path d="M70.2242 1.87639C70.3789 1.78707 70.5695 1.78707 70.7242 1.87639L129.757 35.9588C129.911 36.0481 130.007 36.2132 130.007 36.3918V104.557C130.007 104.735 129.911 104.9 129.757 104.99L70.7242 139.072C70.5695 139.161 70.3789 139.161 70.2242 139.072L11.1918 104.99C11.037 104.9 10.9417 104.735 10.9417 104.557V36.3918C10.9417 36.2132 11.0371 36.0481 11.1917 35.9588L70.2242 1.87639L69.4742 0.577352L70.2242 1.87639Z" stroke="url(#paint0_linear_3241_47)" stroke-width="3"/>
<defs>
<linearGradient id="paint0_linear_3241_47" x1="130.881" y1="140.948" x2="-18.5384" y2="46.2902" gradientUnits="userSpaceOnUse">
<stop stop-color="#0066FF"/>
<stop offset="1" stop-color="#20ECD3"/>
</linearGradient>
</defs>
</svg>
