<svg width="141" height="193" viewBox="0 0 141 193" fill="none" xmlns="http://www.w3.org/2000/svg">
<path d="M70.5 118C69.0548 118.001 67.6349 117.664 66.3832 117.023L53.283 110.145C51.3279 109.175 52.2805 108.832 52.9271 108.632C55.0069 108.063 56.9979 107.265 58.8536 106.257C59.0087 106.192 59.1801 106.164 59.351 106.175C59.5219 106.187 59.6867 106.237 59.8293 106.321L69.8955 111.625C70.0829 111.713 70.2918 111.759 70.5038 111.759C70.7159 111.759 70.9247 111.713 71.1122 111.625L110.367 91.5314C110.552 91.4346 110.704 91.2965 110.81 91.131C110.915 90.9654 110.97 90.7783 110.968 90.5882V50.395C110.968 50.2021 110.913 50.0122 110.806 49.844C110.699 49.6758 110.546 49.5348 110.359 49.4348L71.1045 29.3586C70.9198 29.2652 70.7108 29.2161 70.4981 29.2161C70.2854 29.2161 70.0764 29.2652 69.8917 29.3586L30.6597 49.4416C30.4726 49.5398 30.3172 49.6791 30.2086 49.8461C30.1 50.0132 30.0419 50.2022 30.0399 50.395V90.5712C30.0424 90.7603 30.1005 90.9456 30.2086 91.1087C30.3166 91.2717 30.4708 91.4069 30.6559 91.5009L41.4223 97.0111C47.257 99.5965 50.8305 96.5496 50.8305 93.4892V53.8219C50.8305 53.552 50.9514 53.2931 51.1667 53.1022C51.3819 52.9113 51.6739 52.804 51.9783 52.804H56.9521C57.2565 52.804 57.5485 52.9113 57.7637 53.1022C57.979 53.2931 58.0999 53.552 58.0999 53.8219V93.4926C58.0999 100.397 53.8607 104.35 46.4765 104.35C43.2911 104.397 40.1561 103.642 37.4356 102.172L27.1168 96.9228C25.8652 96.2749 24.8266 95.3476 24.1044 94.2333C23.3821 93.119 23.0014 91.8565 23 90.5712V50.395C22.9955 49.1074 23.3737 47.8414 24.0964 46.7245C24.8191 45.6077 25.8609 44.6794 27.1168 44.0332L66.3756 23.9332C67.6406 23.3209 69.0588 23 70.5 23C71.9413 23 73.3594 23.3209 74.6245 23.9332L113.879 44.0332C115.131 44.6802 116.169 45.6061 116.892 46.7192C117.615 47.8322 117.997 49.0936 118 50.3781V90.5712C117.998 91.8568 117.617 93.1196 116.894 94.2339C116.171 95.3483 115.132 96.2753 113.879 96.9228L74.6245 117.023C73.3706 117.665 71.9478 118.002 70.5 118Z" fill="#83CD29"/>
<path d="M63.0546 77.1251C63.0546 76.8552 63.1755 76.5963 63.3907 76.4054C63.606 76.2145 63.898 76.1073 64.2024 76.1073H69.2795C69.5508 76.108 69.813 76.194 70.0196 76.3499C70.2262 76.5058 70.3639 76.7215 70.4082 76.9589C71.1734 81.5428 73.469 83.8534 83.849 83.8534C92.117 83.8534 95.6407 82.1942 95.6407 78.3025C95.6407 76.0597 94.6421 74.3938 81.7906 73.2775C71.0471 72.3343 64.4051 70.2238 64.4051 62.61C64.4051 55.5866 71.0815 51.3962 82.2726 51.3962C94.8488 51.3962 101.074 55.2676 101.862 63.5736C101.874 63.7123 101.854 63.8517 101.803 63.9832C101.752 64.1147 101.671 64.2355 101.565 64.3382C101.459 64.4409 101.331 64.5233 101.188 64.5803C101.045 64.6373 100.89 64.6676 100.733 64.6695H95.6216C95.3652 64.6664 95.1173 64.5871 94.9176 64.4444C94.7179 64.3018 94.5778 64.1039 94.5197 63.8824C93.2992 59.061 90.3111 57.5206 82.2765 57.5206C73.2471 57.5206 72.1987 60.3096 72.1987 62.3996C72.1987 64.9308 73.4384 65.6705 85.6281 67.0989C97.6915 68.5138 103.423 70.5156 103.423 78.0345C103.423 85.6211 96.2912 89.9641 83.8528 89.9641C66.6548 89.9845 63.0546 82.9916 63.0546 77.1251Z" fill="#83CD29"/>
<path d="M32.4 186.948V172.548H34.84L41.52 182.698V172.548H43.96V186.948H41.52L34.84 176.798V186.948H32.4ZM51.5255 187.248C50.4455 187.248 49.5021 187.005 48.6955 186.518C47.8888 186.032 47.2621 185.362 46.8155 184.508C46.3755 183.648 46.1555 182.662 46.1555 181.548C46.1555 180.415 46.3821 179.422 46.8355 178.568C47.2888 177.715 47.9188 177.048 48.7255 176.568C49.5321 176.088 50.4655 175.848 51.5255 175.848C52.6121 175.848 53.5588 176.092 54.3655 176.578C55.1721 177.065 55.7988 177.738 56.2455 178.598C56.6921 179.452 56.9155 180.435 56.9155 181.548C56.9155 182.668 56.6888 183.658 56.2355 184.518C55.7888 185.372 55.1621 186.042 54.3555 186.528C53.5488 187.008 52.6055 187.248 51.5255 187.248ZM51.5255 184.988C52.4855 184.988 53.1988 184.668 53.6655 184.028C54.1321 183.388 54.3655 182.562 54.3655 181.548C54.3655 180.502 54.1288 179.668 53.6555 179.048C53.1821 178.422 52.4721 178.108 51.5255 178.108C50.8788 178.108 50.3455 178.255 49.9255 178.548C49.5121 178.835 49.2055 179.238 49.0055 179.758C48.8055 180.272 48.7055 180.868 48.7055 181.548C48.7055 182.595 48.9421 183.432 49.4155 184.058C49.8955 184.678 50.5988 184.988 51.5255 184.988ZM63.4488 187.248C62.4554 187.248 61.5888 186.998 60.8488 186.498C60.1088 185.998 59.5354 185.318 59.1288 184.458C58.7221 183.598 58.5188 182.628 58.5188 181.548C58.5188 180.455 58.7221 179.482 59.1288 178.628C59.5421 177.768 60.1254 177.092 60.8788 176.598C61.6321 176.098 62.5188 175.848 63.5388 175.848C64.5654 175.848 65.4254 176.098 66.1188 176.598C66.8188 177.092 67.3488 177.768 67.7088 178.628C68.0688 179.488 68.2488 180.462 68.2488 181.548C68.2488 182.622 68.0688 183.592 67.7088 184.458C67.3488 185.318 66.8121 185.998 66.0988 186.498C65.3854 186.998 64.5021 187.248 63.4488 187.248ZM63.8188 185.088C64.4654 185.088 64.9854 184.942 65.3788 184.648C65.7788 184.348 66.0688 183.932 66.2488 183.398C66.4354 182.865 66.5288 182.248 66.5288 181.548C66.5288 180.842 66.4354 180.225 66.2488 179.698C66.0688 179.165 65.7854 178.752 65.3988 178.458C65.0121 178.158 64.5121 178.008 63.8988 178.008C63.2521 178.008 62.7188 178.168 62.2988 178.488C61.8788 178.802 61.5688 179.228 61.3688 179.768C61.1688 180.302 61.0688 180.895 61.0688 181.548C61.0688 182.208 61.1654 182.808 61.3588 183.348C61.5588 183.882 61.8621 184.305 62.2688 184.618C62.6754 184.932 63.1921 185.088 63.8188 185.088ZM66.5288 186.948V179.368H66.2288V172.548H68.6588V186.948H66.5288ZM76.3725 187.248C75.2792 187.248 74.3192 187.012 73.4925 186.538C72.6658 186.065 72.0192 185.408 71.5525 184.568C71.0925 183.728 70.8625 182.762 70.8625 181.668C70.8625 180.488 71.0892 179.465 71.5425 178.598C71.9958 177.725 72.6258 177.048 73.4325 176.568C74.2392 176.088 75.1725 175.848 76.2325 175.848C77.3525 175.848 78.3025 176.112 79.0825 176.638C79.8692 177.158 80.4525 177.895 80.8325 178.848C81.2125 179.802 81.3558 180.925 81.2625 182.218H78.8725V181.338C78.8658 180.165 78.6592 179.308 78.2525 178.768C77.8458 178.228 77.2058 177.958 76.3325 177.958C75.3458 177.958 74.6125 178.265 74.1325 178.878C73.6525 179.485 73.4125 180.375 73.4125 181.548C73.4125 182.642 73.6525 183.488 74.1325 184.088C74.6125 184.688 75.3125 184.988 76.2325 184.988C76.8258 184.988 77.3358 184.858 77.7625 184.598C78.1958 184.332 78.5292 183.948 78.7625 183.448L81.1425 184.168C80.7292 185.142 80.0892 185.898 79.2225 186.438C78.3625 186.978 77.4125 187.248 76.3725 187.248ZM72.6525 182.218V180.398H80.0825V182.218H72.6525ZM83.5031 186.948V184.478H85.9731V186.948H83.5031ZM92.0573 187.248C90.9573 187.248 90.0407 186.962 89.3073 186.388C88.5807 185.815 88.0707 185.042 87.7773 184.068L90.1573 183.498C90.2307 183.905 90.444 184.255 90.7973 184.548C91.1507 184.842 91.5407 184.988 91.9673 184.988C92.2473 184.988 92.544 184.915 92.8573 184.768C93.1707 184.615 93.404 184.372 93.5573 184.038C93.6507 183.825 93.704 183.572 93.7173 183.278C93.7373 182.978 93.7473 182.632 93.7473 182.238V172.548H96.1873V182.238C96.1873 182.685 96.184 183.078 96.1773 183.418C96.1773 183.752 96.144 184.068 96.0773 184.368C96.0173 184.662 95.894 184.965 95.7073 185.278C95.314 185.958 94.8007 186.458 94.1673 186.778C93.534 187.092 92.8307 187.248 92.0573 187.248ZM103.367 187.248C102.034 187.248 100.95 186.948 100.117 186.348C99.2835 185.748 98.7769 184.905 98.5969 183.818L101.057 183.438C101.184 183.972 101.464 184.392 101.897 184.698C102.33 185.005 102.877 185.158 103.537 185.158C104.117 185.158 104.564 185.045 104.877 184.818C105.197 184.585 105.357 184.268 105.357 183.868C105.357 183.622 105.297 183.425 105.177 183.278C105.064 183.125 104.81 182.978 104.417 182.838C104.024 182.698 103.42 182.522 102.607 182.308C101.7 182.068 100.98 181.812 100.447 181.538C99.9135 181.258 99.5302 180.928 99.2969 180.548C99.0635 180.168 98.9469 179.708 98.9469 179.168C98.9469 178.495 99.1235 177.908 99.4769 177.408C99.8302 176.908 100.324 176.525 100.957 176.258C101.59 175.985 102.337 175.848 103.197 175.848C104.037 175.848 104.78 175.978 105.427 176.238C106.08 176.498 106.607 176.868 107.007 177.348C107.407 177.828 107.654 178.392 107.747 179.038L105.287 179.478C105.227 179.018 105.017 178.655 104.657 178.388C104.304 178.122 103.83 177.972 103.237 177.938C102.67 177.905 102.214 177.992 101.867 178.198C101.52 178.398 101.347 178.682 101.347 179.048C101.347 179.255 101.417 179.432 101.557 179.578C101.697 179.725 101.977 179.872 102.397 180.018C102.824 180.165 103.457 180.345 104.297 180.558C105.157 180.778 105.844 181.032 106.357 181.318C106.877 181.598 107.25 181.935 107.477 182.328C107.71 182.722 107.827 183.198 107.827 183.758C107.827 184.845 107.43 185.698 106.637 186.318C105.85 186.938 104.76 187.248 103.367 187.248Z" fill="black"/>
<path d="M70.7242 1.87639L129.757 35.9588C129.911 36.0481 130.007 36.2132 130.007 36.3918V104.557C130.007 104.735 129.911 104.9 129.757 104.99L70.7242 139.072C70.5695 139.161 70.3789 139.161 70.2242 139.072L11.1918 104.99C11.037 104.9 10.9417 104.735 10.9417 104.557V36.3918C10.9417 36.2132 11.0371 36.0481 11.1917 35.9588L70.2242 1.87639C70.3789 1.78707 70.5695 1.78707 70.7242 1.87639Z" stroke="url(#paint0_linear_3227_108)" stroke-width="3"/>
<defs>
<linearGradient id="paint0_linear_3227_108" x1="130.881" y1="140.948" x2="-18.5384" y2="46.2902" gradientUnits="userSpaceOnUse">
<stop stop-color="#0066FF"/>
<stop offset="1" stop-color="#20ECD3"/>
</linearGradient>
</defs>
</svg>
