<svg width="141" height="193" viewBox="0 0 141 193" fill="none" xmlns="http://www.w3.org/2000/svg">
<path d="M70.5 109C69.3286 109.001 68.1777 108.727 67.1632 108.208L56.5451 102.634C54.9605 101.847 55.7326 101.569 56.2567 101.407C57.9424 100.946 59.5562 100.299 61.0603 99.4819C61.186 99.4295 61.3249 99.4067 61.4634 99.4159C61.602 99.425 61.7355 99.4658 61.8511 99.5342L70.01 103.833C70.162 103.904 70.3312 103.941 70.5031 103.941C70.675 103.941 70.8443 103.904 70.9962 103.833L102.813 87.5465C102.963 87.468 103.087 87.3561 103.172 87.222C103.257 87.0878 103.302 86.9361 103.3 86.782V54.2044C103.301 54.048 103.255 53.8941 103.169 53.7578C103.083 53.6214 102.958 53.5072 102.807 53.4261L70.99 37.1538C70.8402 37.0781 70.6708 37.0383 70.4985 37.0383C70.3261 37.0383 70.1567 37.0781 70.0069 37.1538L38.2084 53.4316C38.0567 53.5112 37.9308 53.6241 37.8428 53.7595C37.7548 53.8949 37.7077 54.0481 37.706 54.2044V86.7682C37.708 86.9215 37.7552 87.0717 37.8427 87.2039C37.9303 87.336 38.0553 87.4456 38.2053 87.5218L46.9318 91.9879C51.6609 94.0835 54.5573 91.6139 54.5573 89.1333V56.982C54.5573 56.7632 54.6553 56.5533 54.8298 56.3986C55.0043 56.2439 55.2409 56.157 55.4877 56.157H59.5191C59.7658 56.157 60.0024 56.2439 60.1769 56.3986C60.3514 56.5533 60.4494 56.7632 60.4494 56.982V89.1361C60.4494 94.7325 57.0134 97.9364 51.0283 97.9364C48.4465 97.9746 45.9055 97.3624 43.7004 96.1708L35.3368 91.9164C34.3223 91.3912 33.4805 90.6397 32.8951 89.7365C32.3097 88.8333 32.0011 87.81 32 86.7682V54.2044C31.9964 53.1607 32.3029 52.1346 32.8887 51.2294C33.4744 50.3241 34.3188 49.5717 35.3368 49.048L67.157 32.7564C68.1824 32.2601 69.3319 32 70.5 32C71.6682 32 72.8176 32.2601 73.843 32.7564L105.66 49.048C106.674 49.5723 107.516 50.3229 108.102 51.225C108.688 52.1272 108.997 53.1496 109 54.1906V86.7682C108.999 87.8103 108.69 88.8338 108.104 89.737C107.518 90.6402 106.675 91.3916 105.66 91.9164L73.843 108.208C72.8267 108.728 71.6735 109.001 70.5 109Z" fill="#83CD29"/>
<path d="M64 75.6803C64 75.4633 64.0989 75.2552 64.2748 75.1018C64.4508 74.9483 64.6894 74.8621 64.9383 74.8621H69.0887C69.3105 74.8627 69.5248 74.9318 69.6937 75.0571C69.8626 75.1825 69.9752 75.3559 70.0114 75.5466C70.6369 79.2311 72.5135 81.0883 80.9989 81.0883C87.7578 81.0883 90.6383 79.7547 90.6383 76.6266C90.6383 74.8239 89.822 73.4849 79.3162 72.5876C70.5337 71.8295 65.1041 70.1332 65.1041 64.0134C65.1041 58.3681 70.5618 55 79.7103 55C89.9909 55 95.0796 58.1117 95.7239 64.7879C95.7338 64.8993 95.7173 65.0114 95.6756 65.1171C95.6338 65.2228 95.5677 65.3199 95.4812 65.4024C95.3948 65.485 95.2898 65.5512 95.1729 65.597C95.0559 65.6428 94.9294 65.6672 94.8013 65.6688H90.6227C90.4131 65.6662 90.2105 65.6025 90.0472 65.4878C89.8839 65.3732 89.7694 65.2141 89.7219 65.0361C88.7242 61.1607 86.2815 59.9226 79.7134 59.9226C72.3321 59.9226 71.4751 62.1643 71.4751 63.8443C71.4751 65.8788 72.4885 66.4733 82.4532 67.6214C92.3148 68.7587 97 70.3677 97 76.4112C97 82.5092 91.17 86 81.002 86C66.9431 86.0163 64 80.3956 64 75.6803Z" fill="#83CD29"/>
<path d="M32.4 186.948V172.548H34.84L41.52 182.698V172.548H43.96V186.948H41.52L34.84 176.798V186.948H32.4ZM51.5255 187.248C50.4455 187.248 49.5021 187.005 48.6955 186.518C47.8888 186.032 47.2621 185.362 46.8155 184.508C46.3755 183.648 46.1555 182.662 46.1555 181.548C46.1555 180.415 46.3821 179.422 46.8355 178.568C47.2888 177.715 47.9188 177.048 48.7255 176.568C49.5321 176.088 50.4655 175.848 51.5255 175.848C52.6121 175.848 53.5588 176.092 54.3655 176.578C55.1721 177.065 55.7988 177.738 56.2455 178.598C56.6921 179.452 56.9155 180.435 56.9155 181.548C56.9155 182.668 56.6888 183.658 56.2355 184.518C55.7888 185.372 55.1621 186.042 54.3555 186.528C53.5488 187.008 52.6055 187.248 51.5255 187.248ZM51.5255 184.988C52.4855 184.988 53.1988 184.668 53.6655 184.028C54.1321 183.388 54.3655 182.562 54.3655 181.548C54.3655 180.502 54.1288 179.668 53.6555 179.048C53.1821 178.422 52.4721 178.108 51.5255 178.108C50.8788 178.108 50.3455 178.255 49.9255 178.548C49.5121 178.835 49.2055 179.238 49.0055 179.758C48.8055 180.272 48.7055 180.868 48.7055 181.548C48.7055 182.595 48.9421 183.432 49.4155 184.058C49.8955 184.678 50.5988 184.988 51.5255 184.988ZM63.4488 187.248C62.4554 187.248 61.5888 186.998 60.8488 186.498C60.1088 185.998 59.5354 185.318 59.1288 184.458C58.7221 183.598 58.5188 182.628 58.5188 181.548C58.5188 180.455 58.7221 179.482 59.1288 178.628C59.5421 177.768 60.1254 177.092 60.8788 176.598C61.6321 176.098 62.5188 175.848 63.5388 175.848C64.5654 175.848 65.4254 176.098 66.1188 176.598C66.8188 177.092 67.3488 177.768 67.7088 178.628C68.0688 179.488 68.2488 180.462 68.2488 181.548C68.2488 182.622 68.0688 183.592 67.7088 184.458C67.3488 185.318 66.8121 185.998 66.0988 186.498C65.3854 186.998 64.5021 187.248 63.4488 187.248ZM63.8188 185.088C64.4654 185.088 64.9854 184.942 65.3788 184.648C65.7788 184.348 66.0688 183.932 66.2488 183.398C66.4354 182.865 66.5288 182.248 66.5288 181.548C66.5288 180.842 66.4354 180.225 66.2488 179.698C66.0688 179.165 65.7854 178.752 65.3988 178.458C65.0121 178.158 64.5121 178.008 63.8988 178.008C63.2521 178.008 62.7188 178.168 62.2988 178.488C61.8788 178.802 61.5688 179.228 61.3688 179.768C61.1688 180.302 61.0688 180.895 61.0688 181.548C61.0688 182.208 61.1654 182.808 61.3588 183.348C61.5588 183.882 61.8621 184.305 62.2688 184.618C62.6754 184.932 63.1921 185.088 63.8188 185.088ZM66.5288 186.948V179.368H66.2288V172.548H68.6588V186.948H66.5288ZM76.3725 187.248C75.2792 187.248 74.3192 187.012 73.4925 186.538C72.6658 186.065 72.0192 185.408 71.5525 184.568C71.0925 183.728 70.8625 182.762 70.8625 181.668C70.8625 180.488 71.0892 179.465 71.5425 178.598C71.9958 177.725 72.6258 177.048 73.4325 176.568C74.2392 176.088 75.1725 175.848 76.2325 175.848C77.3525 175.848 78.3025 176.112 79.0825 176.638C79.8692 177.158 80.4525 177.895 80.8325 178.848C81.2125 179.802 81.3558 180.925 81.2625 182.218H78.8725V181.338C78.8658 180.165 78.6592 179.308 78.2525 178.768C77.8458 178.228 77.2058 177.958 76.3325 177.958C75.3458 177.958 74.6125 178.265 74.1325 178.878C73.6525 179.485 73.4125 180.375 73.4125 181.548C73.4125 182.642 73.6525 183.488 74.1325 184.088C74.6125 184.688 75.3125 184.988 76.2325 184.988C76.8258 184.988 77.3358 184.858 77.7625 184.598C78.1958 184.332 78.5292 183.948 78.7625 183.448L81.1425 184.168C80.7292 185.142 80.0892 185.898 79.2225 186.438C78.3625 186.978 77.4125 187.248 76.3725 187.248ZM72.6525 182.218V180.398H80.0825V182.218H72.6525ZM83.5031 186.948V184.478H85.9731V186.948H83.5031ZM92.0573 187.248C90.9573 187.248 90.0407 186.962 89.3073 186.388C88.5807 185.815 88.0707 185.042 87.7773 184.068L90.1573 183.498C90.2307 183.905 90.444 184.255 90.7973 184.548C91.1507 184.842 91.5407 184.988 91.9673 184.988C92.2473 184.988 92.544 184.915 92.8573 184.768C93.1707 184.615 93.404 184.372 93.5573 184.038C93.6507 183.825 93.704 183.572 93.7173 183.278C93.7373 182.978 93.7473 182.632 93.7473 182.238V172.548H96.1873V182.238C96.1873 182.685 96.184 183.078 96.1773 183.418C96.1773 183.752 96.144 184.068 96.0773 184.368C96.0173 184.662 95.894 184.965 95.7073 185.278C95.314 185.958 94.8007 186.458 94.1673 186.778C93.534 187.092 92.8307 187.248 92.0573 187.248ZM103.367 187.248C102.034 187.248 100.95 186.948 100.117 186.348C99.2835 185.748 98.7769 184.905 98.5969 183.818L101.057 183.438C101.184 183.972 101.464 184.392 101.897 184.698C102.33 185.005 102.877 185.158 103.537 185.158C104.117 185.158 104.564 185.045 104.877 184.818C105.197 184.585 105.357 184.268 105.357 183.868C105.357 183.622 105.297 183.425 105.177 183.278C105.064 183.125 104.81 182.978 104.417 182.838C104.024 182.698 103.42 182.522 102.607 182.308C101.7 182.068 100.98 181.812 100.447 181.538C99.9135 181.258 99.5302 180.928 99.2969 180.548C99.0635 180.168 98.9469 179.708 98.9469 179.168C98.9469 178.495 99.1235 177.908 99.4769 177.408C99.8302 176.908 100.324 176.525 100.957 176.258C101.59 175.985 102.337 175.848 103.197 175.848C104.037 175.848 104.78 175.978 105.427 176.238C106.08 176.498 106.607 176.868 107.007 177.348C107.407 177.828 107.654 178.392 107.747 179.038L105.287 179.478C105.227 179.018 105.017 178.655 104.657 178.388C104.304 178.122 103.83 177.972 103.237 177.938C102.67 177.905 102.214 177.992 101.867 178.198C101.52 178.398 101.347 178.682 101.347 179.048C101.347 179.255 101.417 179.432 101.557 179.578C101.697 179.725 101.977 179.872 102.397 180.018C102.824 180.165 103.457 180.345 104.297 180.558C105.157 180.778 105.844 181.032 106.357 181.318C106.877 181.598 107.25 181.935 107.477 182.328C107.71 182.722 107.827 183.198 107.827 183.758C107.827 184.845 107.43 185.698 106.637 186.318C105.85 186.938 104.76 187.248 103.367 187.248Z" fill="black"/>
<path d="M70.2242 1.87639C70.3789 1.78707 70.5695 1.78707 70.7242 1.87639L129.757 35.9588C129.911 36.0481 130.007 36.2132 130.007 36.3918V104.557C130.007 104.735 129.911 104.9 129.757 104.99L70.7242 139.072C70.5695 139.161 70.3789 139.161 70.2242 139.072L11.1918 104.99C11.037 104.9 10.9417 104.735 10.9417 104.557V36.3918C10.9417 36.2132 11.0371 36.0481 11.1917 35.9588L70.2242 1.87639L69.4742 0.577352L70.2242 1.87639Z" stroke="url(#paint0_linear_3241_46)" stroke-width="3"/>
<defs>
<linearGradient id="paint0_linear_3241_46" x1="130.881" y1="140.948" x2="-18.5384" y2="46.2902" gradientUnits="userSpaceOnUse">
<stop stop-color="#0066FF"/>
<stop offset="1" stop-color="#20ECD3"/>
</linearGradient>
</defs>
</svg>
