<svg width="141" height="193" viewBox="0 0 141 193" fill="none" xmlns="http://www.w3.org/2000/svg">
<path d="M43.3485 186.948V172.548H49.2985C49.4385 172.548 49.6185 172.555 49.8385 172.568C50.0585 172.575 50.2618 172.595 50.4485 172.628C51.2818 172.755 51.9685 173.032 52.5085 173.458C53.0552 173.885 53.4585 174.425 53.7185 175.078C53.9852 175.725 54.1185 176.445 54.1185 177.238C54.1185 178.412 53.8218 179.422 53.2285 180.268C52.6352 181.108 51.7252 181.628 50.4985 181.828L49.4685 181.918H45.7585V186.948H43.3485ZM51.6185 186.948L48.7785 181.088L51.2285 180.548L54.3485 186.948H51.6185ZM45.7585 179.668H49.1985C49.3318 179.668 49.4818 179.662 49.6485 179.648C49.8152 179.635 49.9685 179.608 50.1085 179.568C50.5085 179.468 50.8218 179.292 51.0485 179.038C51.2818 178.785 51.4452 178.498 51.5385 178.178C51.6385 177.858 51.6885 177.545 51.6885 177.238C51.6885 176.932 51.6385 176.618 51.5385 176.298C51.4452 175.972 51.2818 175.682 51.0485 175.428C50.8218 175.175 50.5085 174.998 50.1085 174.898C49.9685 174.858 49.8152 174.835 49.6485 174.828C49.4818 174.815 49.3318 174.808 49.1985 174.808H45.7585V179.668ZM61.4616 187.248C60.3683 187.248 59.4083 187.012 58.5816 186.538C57.7549 186.065 57.1083 185.408 56.6416 184.568C56.1816 183.728 55.9516 182.762 55.9516 181.668C55.9516 180.488 56.1783 179.465 56.6316 178.598C57.0849 177.725 57.7149 177.048 58.5216 176.568C59.3283 176.088 60.2616 175.848 61.3216 175.848C62.4416 175.848 63.3916 176.112 64.1716 176.638C64.9583 177.158 65.5416 177.895 65.9216 178.848C66.3016 179.802 66.4449 180.925 66.3516 182.218H63.9616V181.338C63.9549 180.165 63.7483 179.308 63.3416 178.768C62.9349 178.228 62.2949 177.958 61.4216 177.958C60.4349 177.958 59.7016 178.265 59.2216 178.878C58.7416 179.485 58.5016 180.375 58.5016 181.548C58.5016 182.642 58.7416 183.488 59.2216 184.088C59.7016 184.688 60.4016 184.988 61.3216 184.988C61.9149 184.988 62.4249 184.858 62.8516 184.598C63.2849 184.332 63.6183 183.948 63.8516 183.448L66.2316 184.168C65.8183 185.142 65.1783 185.898 64.3116 186.438C63.4516 186.978 62.5016 187.248 61.4616 187.248ZM57.7416 182.218V180.398H65.1716V182.218H57.7416ZM71.4075 187.248C70.6275 187.248 69.9675 187.102 69.4275 186.808C68.8875 186.508 68.4775 186.112 68.1975 185.618C67.9242 185.125 67.7875 184.582 67.7875 183.988C67.7875 183.468 67.8742 183.002 68.0475 182.588C68.2209 182.168 68.4875 181.808 68.8475 181.508C69.2075 181.202 69.6742 180.952 70.2475 180.758C70.6809 180.618 71.1875 180.492 71.7675 180.378C72.3542 180.265 72.9875 180.162 73.6675 180.068C74.3542 179.968 75.0709 179.862 75.8175 179.748L74.9575 180.238C74.9642 179.492 74.7975 178.942 74.4575 178.588C74.1175 178.235 73.5442 178.058 72.7375 178.058C72.2509 178.058 71.7809 178.172 71.3275 178.398C70.8742 178.625 70.5575 179.015 70.3775 179.568L68.1775 178.878C68.4442 177.965 68.9509 177.232 69.6975 176.678C70.4509 176.125 71.4642 175.848 72.7375 175.848C73.6975 175.848 74.5409 176.005 75.2675 176.318C76.0009 176.632 76.5442 177.145 76.8975 177.858C77.0909 178.238 77.2075 178.628 77.2475 179.028C77.2875 179.422 77.3075 179.852 77.3075 180.318V186.948H75.1975V184.608L75.5475 184.988C75.0609 185.768 74.4909 186.342 73.8375 186.708C73.1909 187.068 72.3809 187.248 71.4075 187.248ZM71.8875 185.328C72.4342 185.328 72.9009 185.232 73.2875 185.038C73.6742 184.845 73.9809 184.608 74.2075 184.328C74.4409 184.048 74.5975 183.785 74.6775 183.538C74.8042 183.232 74.8742 182.882 74.8875 182.488C74.9075 182.088 74.9175 181.765 74.9175 181.518L75.6575 181.738C74.9309 181.852 74.3075 181.952 73.7875 182.038C73.2675 182.125 72.8209 182.208 72.4475 182.288C72.0742 182.362 71.7442 182.445 71.4575 182.538C71.1775 182.638 70.9409 182.755 70.7475 182.888C70.5542 183.022 70.4042 183.175 70.2975 183.348C70.1975 183.522 70.1475 183.725 70.1475 183.958C70.1475 184.225 70.2142 184.462 70.3475 184.668C70.4809 184.868 70.6742 185.028 70.9275 185.148C71.1875 185.268 71.5075 185.328 71.8875 185.328ZM84.601 187.248C83.4877 187.248 82.5377 187.002 81.751 186.508C80.9643 186.008 80.361 185.328 79.941 184.468C79.5277 183.608 79.3177 182.635 79.311 181.548C79.3177 180.442 79.5343 179.462 79.961 178.608C80.3943 177.748 81.0077 177.075 81.801 176.588C82.5943 176.095 83.5377 175.848 84.631 175.848C85.8577 175.848 86.8943 176.158 87.741 176.778C88.5943 177.392 89.151 178.232 89.411 179.298L87.011 179.948C86.8243 179.368 86.5143 178.918 86.081 178.598C85.6477 178.272 85.1543 178.108 84.601 178.108C83.9743 178.108 83.4577 178.258 83.051 178.558C82.6443 178.852 82.3443 179.258 82.151 179.778C81.9577 180.298 81.861 180.888 81.861 181.548C81.861 182.575 82.091 183.405 82.551 184.038C83.011 184.672 83.6943 184.988 84.601 184.988C85.241 184.988 85.7443 184.842 86.111 184.548C86.4843 184.255 86.7643 183.832 86.951 183.278L89.411 183.828C89.0777 184.928 88.4943 185.775 87.661 186.368C86.8277 186.955 85.8077 187.248 84.601 187.248ZM97.7449 186.948C97.0316 187.082 96.3316 187.138 95.6449 187.118C94.9649 187.105 94.3549 186.982 93.8149 186.748C93.2749 186.508 92.8649 186.132 92.5849 185.618C92.3382 185.152 92.2082 184.675 92.1949 184.188C92.1816 183.702 92.1749 183.152 92.1749 182.538V173.148H94.5749V182.398C94.5749 182.832 94.5782 183.212 94.5849 183.538C94.5982 183.865 94.6682 184.132 94.7949 184.338C95.0349 184.738 95.4182 184.962 95.9449 185.008C96.4716 185.055 97.0716 185.028 97.7449 184.928V186.948ZM90.2149 178.038V176.148H97.7449V178.038H90.2149Z" fill="black"/>
<path d="M70.2242 1.87639C70.3789 1.78707 70.5695 1.78707 70.7242 1.87639L129.757 35.9588C129.911 36.0481 130.007 36.2132 130.007 36.3918V104.557C130.007 104.735 129.911 104.9 129.757 104.99L70.7242 139.072C70.5695 139.161 70.3789 139.161 70.2242 139.072L11.1918 104.99C11.037 104.9 10.9417 104.735 10.9417 104.557V36.3918C10.9417 36.2132 11.0371 36.0481 11.1917 35.9588L70.2242 1.87639L69.4742 0.577352L70.2242 1.87639Z" stroke="url(#paint0_linear_3055_82)" stroke-width="3"/>
<mask id="mask0_3055_82" style="mask-type:luminance" maskUnits="userSpaceOnUse" x="23" y="23" width="95" height="95">
<path d="M23 23H118V118H23V23Z" fill="white"/>
</mask>
<g mask="url(#mask0_3055_82)">
<path d="M118 69.2689C118 62.9751 110.119 57.0099 98.0342 53.3128C100.825 40.9985 99.5858 31.1976 94.1233 28.0587C92.7997 27.3174 91.3017 26.9442 89.785 26.978V31.2926C90.6756 31.2926 91.3921 31.4708 91.9938 31.7993C94.626 33.3114 95.77 39.0589 94.8794 46.457C94.6656 48.2778 94.3173 50.1937 93.8898 52.1491C89.8429 51.1739 85.7357 50.4691 81.5952 50.0393C79.1286 46.6363 76.4375 43.4017 73.54 40.3572C79.8535 34.491 85.7792 31.2768 89.8087 31.2768V26.9583C84.4808 26.9583 77.5102 30.7543 70.4604 37.337C63.4146 30.7978 56.44 27.0374 51.116 27.0374V31.352C55.1258 31.352 61.0713 34.5503 67.3848 40.377C64.6733 43.227 61.9619 46.457 59.385 50.0393C55.236 50.4643 51.1214 51.1759 47.0706 52.1689C46.6425 50.3155 46.3057 48.4423 46.0613 46.556C45.1508 39.1539 46.275 33.4064 48.8915 31.8785C49.4694 31.5301 50.2254 31.3718 51.116 31.3718V27.0572C49.4931 27.0572 48.0167 27.4055 46.7421 28.1378C41.2994 31.2768 40.0802 41.0539 42.8867 53.3326C30.8415 57.0535 23 62.9949 23 69.2689C23 75.5626 30.881 81.5278 42.9658 85.221C40.1752 97.5393 41.4142 107.34 46.8767 110.475C48.1354 111.211 49.6079 111.56 51.2308 111.56C56.5588 111.56 63.5294 107.764 70.5792 101.181C77.625 107.724 84.5956 111.481 89.9235 111.481C91.4519 111.513 92.9613 111.139 94.2975 110.396C99.7402 107.261 100.959 97.4839 98.1529 85.2051C110.159 81.508 118 75.5428 118 69.2689ZM92.7854 56.3528C92.0333 58.941 91.1615 61.4929 90.1729 64.0003C88.5546 60.8525 86.7777 57.7888 84.849 54.821C87.6 55.2287 90.2521 55.7314 92.7894 56.3528M83.9227 76.9757C82.4729 79.507 80.9158 81.9752 79.2558 84.3739C73.446 84.8859 67.6027 84.8926 61.7917 84.3937C58.4585 79.6325 55.5436 74.5919 53.0794 69.3283C55.5398 64.0522 58.4424 58.9939 61.756 54.2074C67.5645 53.6943 73.4065 53.6863 79.2162 54.1837C80.8233 56.4874 82.3948 58.9495 83.9029 61.5462C85.3754 64.0795 86.7133 66.6524 87.9325 69.2491C86.6998 71.8772 85.3621 74.4549 83.9227 76.9757ZM90.1729 74.4583C91.2179 77.0549 92.1125 79.6476 92.8448 82.1651C90.3115 82.7866 87.6356 83.3091 84.8687 83.7128C86.7895 80.718 88.5597 77.6293 90.1729 74.4583ZM70.5396 95.1208C68.7385 93.2603 66.9375 91.1901 65.1562 88.922C66.8979 89.0012 68.6792 89.0605 70.4802 89.0605C72.301 89.0605 74.1021 89.021 75.8635 88.922C74.1219 91.1901 72.3208 93.2603 70.5396 95.1208ZM56.1312 83.7128C53.4623 83.3261 50.8127 82.8163 48.1908 82.1849C48.9073 79.6872 49.7979 77.1103 50.8033 74.5374C51.599 76.0812 52.4342 77.6328 53.3446 79.1845C54.255 80.7322 55.1812 82.2443 56.1312 83.7128ZM70.4406 43.417C72.2417 45.2774 74.0427 47.3476 75.824 49.6158C74.0823 49.5366 72.301 49.4772 70.5 49.4772C68.6792 49.4772 66.8781 49.5168 65.1167 49.6158C66.8583 47.3476 68.6594 45.2774 70.4406 43.417ZM56.1115 54.8249C54.1911 57.8132 52.4209 60.8953 50.8073 64.0597C49.7908 61.5361 48.8991 58.964 48.1354 56.3528C50.6687 55.7512 53.3446 55.2287 56.1115 54.8249ZM38.5879 79.0658C31.7321 76.1445 27.2987 72.3089 27.2987 69.2689C27.2987 66.2289 31.7321 62.3735 38.5879 59.472C40.2504 58.7555 42.0713 58.1143 43.9515 57.5166C45.0558 61.3087 46.5085 65.2591 48.3056 69.3085C46.6089 73.1171 45.174 77.037 44.0108 81.041C42.172 80.4716 40.3622 79.8124 38.5879 79.0658ZM49.0063 106.734C46.374 105.23 45.23 99.4749 46.1206 92.0807C46.3344 90.2599 46.6827 88.3401 47.1102 86.3847C50.9023 87.3149 55.0467 88.0314 59.4048 88.4985C61.8715 91.9014 64.5626 95.1359 67.46 98.1805C61.1465 104.047 55.2208 107.261 51.1912 107.261C50.431 107.269 49.6805 107.09 49.0063 106.738M94.9388 91.9857C95.8492 99.3839 94.725 105.135 92.1085 106.663C91.5306 107.012 90.7746 107.166 89.884 107.166C85.8742 107.166 79.9287 103.972 73.6152 98.141C76.5005 95.1091 79.1735 91.882 81.615 88.4826C85.764 88.0576 89.8786 87.3461 93.9294 86.353C94.3767 88.3085 94.721 90.1847 94.9388 91.9857ZM102.392 79.0697C100.73 79.7862 98.909 80.4274 97.0287 81.0251C95.8451 77.0008 94.3904 73.0611 92.6746 69.2333C94.4558 65.2076 95.8848 61.277 96.9694 57.5007C98.8141 58.072 100.63 58.7312 102.412 59.476C109.268 62.3972 113.701 66.2328 113.701 69.2728C113.681 72.3128 109.248 76.1683 102.392 79.0697Z" fill="#61DAFB"/>
<path d="M70.4802 78.1196C72.8276 78.1196 75.0789 77.1871 76.7387 75.5273C78.3986 73.8674 79.3311 71.6162 79.3311 69.2688C79.3311 66.9214 78.3986 64.6702 76.7387 63.0103C75.0789 61.3505 72.8276 60.418 70.4802 60.418C68.1328 60.418 65.8816 61.3505 64.2217 63.0103C62.5619 64.6702 61.6294 66.9214 61.6294 69.2688C61.6294 71.6162 62.5619 73.8674 64.2217 75.5273C65.8816 77.1871 68.1328 78.1196 70.4802 78.1196Z" fill="#61DAFB"/>
</g>
<defs>
<linearGradient id="paint0_linear_3055_82" x1="130.881" y1="140.948" x2="-18.5384" y2="46.2902" gradientUnits="userSpaceOnUse">
<stop stop-color="#0066FF"/>
<stop offset="1" stop-color="#20ECD3"/>
</linearGradient>
</defs>
</svg>
