<svg width="141" height="193" viewBox="0 0 141 193" fill="none" xmlns="http://www.w3.org/2000/svg">
<path d="M43.3485 186.948V172.548H49.2985C49.4385 172.548 49.6185 172.555 49.8385 172.568C50.0585 172.575 50.2618 172.595 50.4485 172.628C51.2818 172.755 51.9685 173.032 52.5085 173.458C53.0552 173.885 53.4585 174.425 53.7185 175.078C53.9852 175.725 54.1185 176.445 54.1185 177.238C54.1185 178.412 53.8218 179.422 53.2285 180.268C52.6352 181.108 51.7252 181.628 50.4985 181.828L49.4685 181.918H45.7585V186.948H43.3485ZM51.6185 186.948L48.7785 181.088L51.2285 180.548L54.3485 186.948H51.6185ZM45.7585 179.668H49.1985C49.3318 179.668 49.4818 179.662 49.6485 179.648C49.8152 179.635 49.9685 179.608 50.1085 179.568C50.5085 179.468 50.8218 179.292 51.0485 179.038C51.2818 178.785 51.4452 178.498 51.5385 178.178C51.6385 177.858 51.6885 177.545 51.6885 177.238C51.6885 176.932 51.6385 176.618 51.5385 176.298C51.4452 175.972 51.2818 175.682 51.0485 175.428C50.8218 175.175 50.5085 174.998 50.1085 174.898C49.9685 174.858 49.8152 174.835 49.6485 174.828C49.4818 174.815 49.3318 174.808 49.1985 174.808H45.7585V179.668ZM61.4616 187.248C60.3683 187.248 59.4083 187.012 58.5816 186.538C57.7549 186.065 57.1083 185.408 56.6416 184.568C56.1816 183.728 55.9516 182.762 55.9516 181.668C55.9516 180.488 56.1783 179.465 56.6316 178.598C57.0849 177.725 57.7149 177.048 58.5216 176.568C59.3283 176.088 60.2616 175.848 61.3216 175.848C62.4416 175.848 63.3916 176.112 64.1716 176.638C64.9583 177.158 65.5416 177.895 65.9216 178.848C66.3016 179.802 66.4449 180.925 66.3516 182.218H63.9616V181.338C63.9549 180.165 63.7483 179.308 63.3416 178.768C62.9349 178.228 62.2949 177.958 61.4216 177.958C60.4349 177.958 59.7016 178.265 59.2216 178.878C58.7416 179.485 58.5016 180.375 58.5016 181.548C58.5016 182.642 58.7416 183.488 59.2216 184.088C59.7016 184.688 60.4016 184.988 61.3216 184.988C61.9149 184.988 62.4249 184.858 62.8516 184.598C63.2849 184.332 63.6183 183.948 63.8516 183.448L66.2316 184.168C65.8183 185.142 65.1783 185.898 64.3116 186.438C63.4516 186.978 62.5016 187.248 61.4616 187.248ZM57.7416 182.218V180.398H65.1716V182.218H57.7416ZM71.4075 187.248C70.6275 187.248 69.9675 187.102 69.4275 186.808C68.8875 186.508 68.4775 186.112 68.1975 185.618C67.9242 185.125 67.7875 184.582 67.7875 183.988C67.7875 183.468 67.8742 183.002 68.0475 182.588C68.2209 182.168 68.4875 181.808 68.8475 181.508C69.2075 181.202 69.6742 180.952 70.2475 180.758C70.6809 180.618 71.1875 180.492 71.7675 180.378C72.3542 180.265 72.9875 180.162 73.6675 180.068C74.3542 179.968 75.0709 179.862 75.8175 179.748L74.9575 180.238C74.9642 179.492 74.7975 178.942 74.4575 178.588C74.1175 178.235 73.5442 178.058 72.7375 178.058C72.2509 178.058 71.7809 178.172 71.3275 178.398C70.8742 178.625 70.5575 179.015 70.3775 179.568L68.1775 178.878C68.4442 177.965 68.9509 177.232 69.6975 176.678C70.4509 176.125 71.4642 175.848 72.7375 175.848C73.6975 175.848 74.5409 176.005 75.2675 176.318C76.0009 176.632 76.5442 177.145 76.8975 177.858C77.0909 178.238 77.2075 178.628 77.2475 179.028C77.2875 179.422 77.3075 179.852 77.3075 180.318V186.948H75.1975V184.608L75.5475 184.988C75.0609 185.768 74.4909 186.342 73.8375 186.708C73.1909 187.068 72.3809 187.248 71.4075 187.248ZM71.8875 185.328C72.4342 185.328 72.9009 185.232 73.2875 185.038C73.6742 184.845 73.9809 184.608 74.2075 184.328C74.4409 184.048 74.5975 183.785 74.6775 183.538C74.8042 183.232 74.8742 182.882 74.8875 182.488C74.9075 182.088 74.9175 181.765 74.9175 181.518L75.6575 181.738C74.9309 181.852 74.3075 181.952 73.7875 182.038C73.2675 182.125 72.8209 182.208 72.4475 182.288C72.0742 182.362 71.7442 182.445 71.4575 182.538C71.1775 182.638 70.9409 182.755 70.7475 182.888C70.5542 183.022 70.4042 183.175 70.2975 183.348C70.1975 183.522 70.1475 183.725 70.1475 183.958C70.1475 184.225 70.2142 184.462 70.3475 184.668C70.4809 184.868 70.6742 185.028 70.9275 185.148C71.1875 185.268 71.5075 185.328 71.8875 185.328ZM84.601 187.248C83.4877 187.248 82.5377 187.002 81.751 186.508C80.9643 186.008 80.361 185.328 79.941 184.468C79.5277 183.608 79.3177 182.635 79.311 181.548C79.3177 180.442 79.5343 179.462 79.961 178.608C80.3943 177.748 81.0077 177.075 81.801 176.588C82.5943 176.095 83.5377 175.848 84.631 175.848C85.8577 175.848 86.8943 176.158 87.741 176.778C88.5943 177.392 89.151 178.232 89.411 179.298L87.011 179.948C86.8243 179.368 86.5143 178.918 86.081 178.598C85.6477 178.272 85.1543 178.108 84.601 178.108C83.9743 178.108 83.4577 178.258 83.051 178.558C82.6443 178.852 82.3443 179.258 82.151 179.778C81.9577 180.298 81.861 180.888 81.861 181.548C81.861 182.575 82.091 183.405 82.551 184.038C83.011 184.672 83.6943 184.988 84.601 184.988C85.241 184.988 85.7443 184.842 86.111 184.548C86.4843 184.255 86.7643 183.832 86.951 183.278L89.411 183.828C89.0777 184.928 88.4943 185.775 87.661 186.368C86.8277 186.955 85.8077 187.248 84.601 187.248ZM97.7449 186.948C97.0316 187.082 96.3316 187.138 95.6449 187.118C94.9649 187.105 94.3549 186.982 93.8149 186.748C93.2749 186.508 92.8649 186.132 92.5849 185.618C92.3382 185.152 92.2082 184.675 92.1949 184.188C92.1816 183.702 92.1749 183.152 92.1749 182.538V173.148H94.5749V182.398C94.5749 182.832 94.5782 183.212 94.5849 183.538C94.5982 183.865 94.6682 184.132 94.7949 184.338C95.0349 184.738 95.4182 184.962 95.9449 185.008C96.4716 185.055 97.0716 185.028 97.7449 184.928V186.948ZM90.2149 178.038V176.148H97.7449V178.038H90.2149Z" fill="black"/>
<path d="M70.2242 1.87639C70.3789 1.78707 70.5695 1.78707 70.7242 1.87639L129.757 35.9588C129.911 36.0481 130.007 36.2132 130.007 36.3918V104.557C130.007 104.735 129.911 104.9 129.757 104.99L70.7242 139.072C70.5695 139.161 70.3789 139.161 70.2242 139.072L11.1918 104.99C11.037 104.9 10.9417 104.735 10.9417 104.557V36.3918C10.9417 36.2132 11.0371 36.0481 11.1917 35.9588L70.2242 1.87639L69.4742 0.577352L70.2242 1.87639Z" stroke="url(#paint0_linear_3241_45)" stroke-width="3"/>
<mask id="mask0_3241_45" style="mask-type:luminance" maskUnits="userSpaceOnUse" x="32" y="32" width="77" height="77">
<path d="M32 32H109V109H32V32Z" fill="white"/>
</mask>
<g mask="url(#mask0_3241_45)">
<path d="M109 69.5021C109 64.4009 102.612 59.5659 92.8172 56.5693C95.079 46.5882 94.0748 38.6444 89.6473 36.1002C88.5745 35.4993 87.3603 35.1969 86.131 35.2243V38.7214C86.8529 38.7214 87.4336 38.8658 87.9212 39.132C90.0548 40.3576 90.982 45.0161 90.2601 51.0125C90.0869 52.4883 89.8045 54.0412 89.458 55.6261C86.178 54.8357 82.8489 54.2644 79.493 53.916C77.4937 51.1578 75.3125 48.5361 72.964 46.0685C78.0813 41.3137 82.8842 38.7085 86.1502 38.7085V35.2083C81.8318 35.2083 76.182 38.285 70.4679 43.6205C64.7571 38.3203 59.104 35.2724 54.7888 35.2724V38.7695C58.0388 38.7695 62.8578 41.3618 67.975 46.0845C65.7773 48.3945 63.5796 51.0125 61.491 53.916C58.1281 54.2605 54.7931 54.8373 51.5099 55.6421C51.1629 54.14 50.8898 52.6217 50.6918 51.0927C49.9538 45.0931 50.865 40.4346 52.9857 39.1962C53.4541 38.9139 54.0669 38.7855 54.7888 38.7855V35.2885C53.4734 35.2885 52.2767 35.5708 51.2436 36.1643C46.8321 38.7085 45.844 46.6331 48.1187 56.5854C38.3557 59.6012 32 64.4169 32 69.5021C32 74.6034 38.3878 79.4383 48.1828 82.4317C45.921 92.416 46.9252 100.36 51.3527 102.901C52.3729 103.498 53.5664 103.78 54.8818 103.78C59.2002 103.78 64.8501 100.703 70.5642 95.3677C76.275 100.671 81.9249 103.716 86.2433 103.716C87.482 103.742 88.7055 103.439 89.7885 102.837C94.2 100.296 95.1881 92.3711 92.9134 82.4189C102.644 79.4223 109 74.5873 109 69.5021ZM88.5629 59.0333C87.9533 61.1311 87.2467 63.1995 86.4454 65.2318C85.1337 62.6804 83.6935 60.1972 82.1302 57.7917C84.36 58.1222 86.5096 58.5296 88.5661 59.0333M81.3795 75.7488C80.2043 77.8004 78.9423 79.801 77.5968 81.7451C72.8878 82.1602 68.1516 82.1655 63.4417 81.7612C60.7401 77.9021 58.3774 73.8166 56.3801 69.5503C58.3744 65.2739 60.727 61.174 63.4128 57.2944C68.1207 56.8785 72.8558 56.8721 77.5647 57.2752C78.8673 59.1424 80.141 61.138 81.3634 63.2427C82.5569 65.296 83.6413 67.3814 84.6295 69.4861C83.6304 71.6163 82.5461 73.7055 81.3795 75.7488ZM86.4454 73.7083C87.2924 75.8129 88.0175 77.9144 88.611 79.9549C86.5577 80.4586 84.3889 80.8821 82.1462 81.2093C83.7031 78.782 85.1379 76.2785 86.4454 73.7083ZM70.5321 90.4558C69.0723 88.9478 67.6125 87.2699 66.1687 85.4315C67.5804 85.4957 69.0242 85.5438 70.484 85.5438C71.9598 85.5438 73.4196 85.5117 74.8473 85.4315C73.4356 87.2699 71.9758 88.9478 70.5321 90.4558ZM58.8537 81.2093C56.6905 80.8959 54.5429 80.4826 52.4178 79.9709C52.9985 77.9465 53.7204 75.8578 54.5353 73.7724C55.1802 75.0237 55.8572 76.2813 56.5951 77.539C57.333 78.7935 58.0837 80.019 58.8537 81.2093ZM70.4519 48.5485C71.9117 50.0564 73.3715 51.7344 74.8152 53.5728C73.4035 53.5086 71.9598 53.4605 70.5 53.4605C69.0242 53.4605 67.5644 53.4925 66.1367 53.5728C67.5483 51.7344 69.0081 50.0564 70.4519 48.5485ZM58.8377 57.7949C57.2812 60.217 55.8464 62.7151 54.5385 65.28C53.7147 63.2345 52.9919 61.1498 52.3729 59.0333C54.4262 58.5457 56.5951 58.1222 58.8377 57.7949ZM44.6344 77.4428C39.0776 75.075 35.4842 71.9661 35.4842 69.5021C35.4842 67.0381 39.0776 63.9132 44.6344 61.5615C45.9819 60.9808 47.4578 60.461 48.9817 59.9766C49.8768 63.0502 51.0543 66.2521 52.5109 69.5342C51.1357 72.6212 49.9726 75.7984 49.0298 79.0437C47.5394 78.5822 46.0725 78.0479 44.6344 77.4428ZM53.0788 99.869C50.9452 98.6498 50.018 93.9849 50.7399 87.9918C50.9131 86.5159 51.1955 84.9599 51.542 83.375C54.6155 84.1289 57.9747 84.7096 61.507 85.0882C63.5064 87.8464 65.6876 90.4681 68.036 92.9358C62.9187 97.6905 58.1158 100.296 54.8498 100.296C54.2336 100.302 53.6252 100.157 53.0788 99.8722M90.3082 87.9148C91.0462 93.9111 90.135 98.5728 88.0143 99.8113C87.5459 100.094 86.9331 100.219 86.2112 100.219C82.9612 100.219 78.1422 97.6296 73.025 92.9037C75.3636 90.4463 77.5301 87.8307 79.509 85.0754C82.8719 84.7309 86.2069 84.1542 89.4901 83.3493C89.8527 84.9342 90.1318 86.455 90.3082 87.9148ZM96.3495 77.446C95.002 78.0267 93.5262 78.5464 92.0022 79.0309C91.0429 75.769 89.8638 72.5758 88.4731 69.4733C89.9168 66.2104 91.075 63.0245 91.9541 59.9638C93.4493 60.4268 94.9215 60.961 96.3656 61.5647C101.922 63.9325 105.516 67.0413 105.516 69.5053C105.5 71.9693 101.906 75.0943 96.3495 77.446Z" fill="#61DAFB"/>
<path d="M70.484 76.676C72.3866 76.676 74.2113 75.9202 75.5567 74.5749C76.902 73.2295 77.6578 71.4048 77.6578 69.5022C77.6578 67.5996 76.902 65.7749 75.5567 64.4295C74.2113 63.0842 72.3866 62.3284 70.484 62.3284C68.5814 62.3284 66.7567 63.0842 65.4113 64.4295C64.066 65.7749 63.3102 67.5996 63.3102 69.5022C63.3102 71.4048 64.066 73.2295 65.4113 74.5749C66.7567 75.9202 68.5814 76.676 70.484 76.676Z" fill="#61DAFB"/>
</g>
<defs>
<linearGradient id="paint0_linear_3241_45" x1="130.881" y1="140.948" x2="-18.5384" y2="46.2902" gradientUnits="userSpaceOnUse">
<stop stop-color="#0066FF"/>
<stop offset="1" stop-color="#20ECD3"/>
</linearGradient>
</defs>
</svg>
