<svg width="141" height="193" viewBox="0 0 141 193" fill="none" xmlns="http://www.w3.org/2000/svg">
<path d="M46.8328 95.7523L41.5664 36.6875H99.4336L94.1602 95.743L70.4648 102.312L46.8328 95.7523Z" fill="#E44F26"/>
<path d="M70.5 97.2923L89.6484 91.9837L94.1531 41.5181H70.5V97.2923Z" fill="#F1662A"/>
<path d="M70.5 63.4228H60.9141L60.2531 56.0048H70.5V48.7603H52.3359L52.5094 50.7056L54.2883 70.6673H70.5V63.4228ZM70.5 82.236L70.4672 82.2454L62.4 80.0681L61.8844 74.2907H54.6117L55.6266 85.6626L70.4672 89.7829L70.5 89.7735V82.236Z" fill="#EBEBEB"/>
<path d="M70.4742 63.4228V70.6673H79.3946L78.5555 80.0634L70.4742 82.2431V89.7806L85.3266 85.6626L85.4344 84.4392L87.136 65.3681L87.3141 63.4228H70.4742ZM70.4742 48.7603V56.0048H87.9727L88.118 54.3782L88.4485 50.7056L88.6219 48.7603H70.4742Z" fill="white"/>
<path d="M70.7242 1.87639L129.757 35.9588C129.911 36.0481 130.007 36.2132 130.007 36.3918V104.557C130.007 104.735 129.911 104.9 129.757 104.99L70.7242 139.072C70.5695 139.161 70.3789 139.161 70.2242 139.072L11.1918 104.99C11.037 104.9 10.9417 104.735 10.9417 104.557V36.3918C10.9417 36.2132 11.0371 36.0481 11.1917 35.9588L70.2242 1.87639C70.3789 1.78707 70.5695 1.78707 70.7242 1.87639Z" stroke="url(#paint0_linear_3054_47)" stroke-width="3"/>
<path d="M38.8727 186.948V172.548H41.2827V178.608H48.1027V172.548H50.5027V186.948H48.1027V180.868H41.2827V186.948H38.8727ZM56.7663 186.948V174.808H52.1063V172.548H63.8363V174.808H59.1763V186.948H56.7663ZM65.4352 186.948V172.548H67.6052L72.5852 182.748L77.5652 172.548H79.7352V186.948H77.4852V177.718L73.0652 186.948H72.1052L67.6952 177.718V186.948H65.4352ZM82.7445 186.948V172.548H85.1545V184.688H91.5145V186.948H82.7445ZM97.4786 187.248C96.7453 187.248 96.0619 187.098 95.4286 186.798C94.7953 186.492 94.2486 186.072 93.7886 185.538C93.3353 185.005 93.0086 184.385 92.8086 183.678L95.1286 183.058C95.2219 183.445 95.3919 183.778 95.6386 184.058C95.8919 184.338 96.1853 184.555 96.5186 184.708C96.8586 184.862 97.2086 184.938 97.5686 184.938C98.0353 184.938 98.4619 184.825 98.8486 184.598C99.2353 184.372 99.5419 184.068 99.7686 183.688C99.9953 183.302 100.109 182.875 100.109 182.408C100.109 181.942 99.9919 181.518 99.7586 181.138C99.5319 180.752 99.2253 180.448 98.8386 180.228C98.4519 180.002 98.0286 179.888 97.5686 179.888C97.0153 179.888 96.5553 179.988 96.1886 180.188C95.8286 180.388 95.5519 180.602 95.3586 180.828L93.2986 180.168L93.7386 172.548H101.559V174.808H95.0286L95.9286 173.958L95.6086 179.258L95.1686 178.718C95.5419 178.378 95.9753 178.125 96.4686 177.958C96.9619 177.792 97.4386 177.708 97.8986 177.708C98.7986 177.708 99.5953 177.915 100.289 178.328C100.989 178.735 101.535 179.292 101.929 179.998C102.329 180.705 102.529 181.508 102.529 182.408C102.529 183.308 102.295 184.125 101.829 184.858C101.362 185.585 100.745 186.165 99.9786 186.598C99.2186 187.032 98.3853 187.248 97.4786 187.248Z" fill="black"/>
<defs>
<linearGradient id="paint0_linear_3054_47" x1="130.881" y1="140.948" x2="-18.5384" y2="46.2902" gradientUnits="userSpaceOnUse">
<stop stop-color="#0066FF"/>
<stop offset="1" stop-color="#20ECD3"/>
</linearGradient>
</defs>
</svg>
