<svg width="41" height="41" viewBox="0 0 41 41" fill="none" xmlns="http://www.w3.org/2000/svg">
<path fill-rule="evenodd" clip-rule="evenodd" d="M26.4002 0.919071C26.4002 0.783062 26.3322 0.652624 26.2112 0.556452C26.0902 0.460279 25.9261 0.40625 25.755 0.40625H7.69052C5.80834 0.40625 4.00325 1.00057 2.67235 2.05847C1.34144 3.11637 0.59375 4.55118 0.59375 6.04728V34.7652C0.59375 36.2613 1.34144 37.6961 2.67235 38.754C4.00325 39.8119 5.80834 40.4063 7.69052 40.4063H33.497C35.3792 40.4063 37.1842 39.8119 38.5152 38.754C39.8461 37.6961 40.5937 36.2613 40.5937 34.7652V14.5539C40.5937 14.4179 40.5258 14.2875 40.4048 14.1913C40.2838 14.0952 40.1197 14.0411 39.9486 14.0411H28.3357C27.8224 14.0411 27.3301 13.879 26.9671 13.5905C26.6041 13.302 26.4002 12.9107 26.4002 12.5027V0.919071ZM28.3357 20.9191C28.849 20.9191 29.3413 21.0812 29.7043 21.3697C30.0673 21.6582 30.2712 22.0495 30.2712 22.4575C30.2712 22.8656 30.0673 23.2569 29.7043 23.5454C29.3413 23.8339 28.849 23.996 28.3357 23.996H12.8518C12.3385 23.996 11.8462 23.8339 11.4832 23.5454C11.1202 23.2569 10.9163 22.8656 10.9163 22.4575C10.9163 22.0495 11.1202 21.6582 11.4832 21.3697C11.8462 21.0812 12.3385 20.9191 12.8518 20.9191H28.3357ZM28.3357 29.1242C28.849 29.1242 29.3413 29.2863 29.7043 29.5748C30.0673 29.8633 30.2712 30.2546 30.2712 30.6627C30.2712 31.0707 30.0673 31.462 29.7043 31.7505C29.3413 32.039 28.849 32.2011 28.3357 32.2011H12.8518C12.3385 32.2011 11.8462 32.039 11.4832 31.7505C11.1202 31.462 10.9163 31.0707 10.9163 30.6627C10.9163 30.2546 11.1202 29.8633 11.4832 29.5748C11.8462 29.2863 12.3385 29.1242 12.8518 29.1242H28.3357Z" fill="black"/>
<path d="M30.2712 1.58362C30.2712 1.20619 30.7692 0.966186 31.1383 1.20208C31.4505 1.40311 31.7318 1.63696 31.9718 1.90362L39.7473 10.5129C39.9228 10.7098 39.7318 10.9641 39.4273 10.9641H30.9163C30.7452 10.9641 30.5811 10.9101 30.4601 10.8139C30.3392 10.7178 30.2712 10.5873 30.2712 10.4513V1.58362Z" fill="black"/>
</svg>
