<svg width="41" height="41" viewBox="0 0 41 41" fill="none" xmlns="http://www.w3.org/2000/svg">
<path d="M20.5 0.5C9.45 0.5 0.5 9.67638 0.5 21.0059C0.5 30.0797 6.225 37.7438 14.175 40.4608C15.175 40.6403 15.55 40.0251 15.55 39.4868C15.55 38.9998 15.525 37.3849 15.525 35.6676C10.5 36.616 9.2 34.4116 8.8 33.2581C8.575 32.6686 7.6 30.8487 6.75 30.3617C6.05 29.9772 5.05 29.0288 6.725 29.0032C8.3 28.9775 9.425 30.4898 9.8 31.105C11.6 34.2065 14.475 33.335 15.625 32.7968C15.8 31.4639 16.325 30.5667 16.9 30.0541C12.45 29.5414 7.8 27.7728 7.8 19.9293C7.8 17.6993 8.575 15.8538 9.85 14.4184C9.65 13.9057 8.95 11.8039 10.05 8.98431C10.05 8.98431 11.725 8.44603 15.55 11.0862C17.15 10.6248 18.85 10.3941 20.55 10.3941C22.25 10.3941 23.95 10.6248 25.55 11.0862C29.375 8.42039 31.05 8.98431 31.05 8.98431C32.15 11.8039 31.45 13.9057 31.25 14.4184C32.525 15.8538 33.3 17.6737 33.3 19.9293C33.3 27.7984 28.625 29.5414 24.175 30.0541C24.9 30.6949 25.525 31.9253 25.525 33.8477C25.525 36.5903 25.5 38.7947 25.5 39.4868C25.5 40.0251 25.875 40.6659 26.875 40.4608C30.846 39.0876 34.2967 36.4716 36.741 32.9814C39.1853 29.4912 40.5001 25.3027 40.5 21.0059C40.5 9.67638 31.55 0.5 20.5 0.5Z" fill="black"/>
</svg>
