<svg width="41" height="41" viewBox="0 0 41 41" fill="none" xmlns="http://www.w3.org/2000/svg">
<g clip-path="url(#clip0_2877_329)">
<path d="M0.5 3.365C0.5 1.7825 1.815 0.5 3.4375 0.5H37.5625C39.185 0.5 40.5 1.7825 40.5 3.365V37.635C40.5 39.2175 39.185 40.5 37.5625 40.5H3.4375C1.815 40.5 0.5 39.2175 0.5 37.635V3.365ZM12.8575 33.985V15.9225H6.855V33.985H12.8575ZM9.8575 13.455C11.95 13.455 13.2525 12.07 13.2525 10.335C13.215 8.5625 11.9525 7.215 9.8975 7.215C7.8425 7.215 6.5 8.565 6.5 10.335C6.5 12.07 7.8025 13.455 9.8175 13.455H9.8575ZM22.1275 33.985V23.8975C22.1275 23.3575 22.1675 22.8175 22.3275 22.4325C22.76 21.355 23.7475 20.2375 25.4075 20.2375C27.58 20.2375 28.4475 21.8925 28.4475 24.3225V33.985H34.45V23.625C34.45 18.075 31.49 15.495 27.54 15.495C24.355 15.495 22.9275 17.245 22.1275 18.4775V18.54H22.0875L22.1275 18.4775V15.9225H16.1275C16.2025 17.6175 16.1275 33.985 16.1275 33.985H22.1275Z" fill="black"/>
</g>
<defs>
<clipPath id="clip0_2877_329">
<rect width="40" height="40" fill="white" transform="translate(0.5 0.5)"/>
</clipPath>
</defs>
</svg>
